<svg xmlns="http://www.w3.org/2000/svg" xmlns:xlink="http://www.w3.org/1999/xlink" width="50" zoomAndPan="magnify" viewBox="0 0 37.5 37.499999" height="50" preserveAspectRatio="xMidYMid meet" version="1.0"><defs><clipPath id="6ccbda864b"><path d="M 5.8125 5.8125 L 32 5.8125 L 32 32.0625 L 5.8125 32.0625 Z M 5.8125 5.8125 " clip-rule="nonzero"/></clipPath><clipPath id="09fe66d011"><path d="M 10.007812 5.777344 L 27.753906 5.777344 C 28.03125 5.777344 28.308594 5.804688 28.582031 5.859375 C 28.855469 5.914062 29.117188 5.996094 29.375 6.101562 C 29.632812 6.207031 29.875 6.335938 30.105469 6.492188 C 30.339844 6.644531 30.550781 6.820312 30.75 7.015625 C 30.945312 7.214844 31.121094 7.425781 31.277344 7.65625 C 31.429688 7.890625 31.5625 8.132812 31.667969 8.390625 C 31.773438 8.644531 31.855469 8.910156 31.90625 9.183594 C 31.960938 9.453125 31.988281 9.730469 31.988281 10.007812 L 31.988281 27.832031 C 31.988281 28.109375 31.960938 28.386719 31.90625 28.660156 C 31.855469 28.929688 31.773438 29.195312 31.667969 29.453125 C 31.5625 29.707031 31.429688 29.953125 31.277344 30.183594 C 31.121094 30.414062 30.945312 30.628906 30.75 30.824219 C 30.550781 31.019531 30.339844 31.195312 30.105469 31.347656 C 29.875 31.503906 29.632812 31.632812 29.375 31.738281 C 29.117188 31.847656 28.855469 31.925781 28.582031 31.980469 C 28.308594 32.035156 28.03125 32.0625 27.753906 32.0625 L 10.007812 32.0625 C 9.730469 32.0625 9.453125 32.035156 9.183594 31.980469 C 8.910156 31.925781 8.644531 31.847656 8.386719 31.738281 C 8.128906 31.632812 7.886719 31.503906 7.65625 31.347656 C 7.425781 31.195312 7.210938 31.019531 7.011719 30.824219 C 6.816406 30.628906 6.640625 30.414062 6.488281 30.183594 C 6.332031 29.953125 6.203125 29.707031 6.09375 29.453125 C 5.988281 29.195312 5.910156 28.929688 5.855469 28.660156 C 5.800781 28.386719 5.773438 28.109375 5.773438 27.832031 L 5.773438 10.007812 C 5.773438 9.730469 5.800781 9.453125 5.855469 9.183594 C 5.910156 8.910156 5.988281 8.644531 6.09375 8.390625 C 6.203125 8.132812 6.332031 7.890625 6.488281 7.65625 C 6.640625 7.425781 6.816406 7.214844 7.011719 7.015625 C 7.210938 6.820312 7.425781 6.644531 7.65625 6.492188 C 7.886719 6.335938 8.128906 6.207031 8.386719 6.101562 C 8.644531 5.996094 8.910156 5.914062 9.183594 5.859375 C 9.453125 5.804688 9.730469 5.777344 10.007812 5.777344 Z M 10.007812 5.777344 " clip-rule="nonzero"/></clipPath></defs><g clip-path="url(#6ccbda864b)"><g clip-path="url(#09fe66d011)"><path fill="#1b0739" d="M 5.8125 5.8125 L 5.8125 32.0625 L 31.988281 32.0625 L 31.988281 5.8125 Z M 5.8125 5.8125 " fill-opacity="1" fill-rule="nonzero"/></g></g><path fill="#fff9f1" d="M 19.078125 17.089844 C 19.746094 17.089844 20.253906 16.949219 20.601562 16.65625 C 20.945312 16.363281 21.121094 15.9375 21.121094 15.367188 C 21.121094 14.808594 20.945312 14.382812 20.601562 14.09375 C 20.253906 13.796875 19.746094 13.644531 19.078125 13.644531 L 16.726562 13.644531 L 16.726562 17.089844 L 19.078125 17.089844 M 19.222656 24.210938 C 20.074219 24.210938 20.714844 24.035156 21.140625 23.679688 C 21.574219 23.320312 21.792969 22.785156 21.792969 22.0625 C 21.792969 21.359375 21.578125 20.832031 21.152344 20.484375 C 20.726562 20.128906 20.082031 19.949219 19.222656 19.949219 L 16.726562 19.949219 L 16.726562 24.210938 L 19.222656 24.210938 M 23.171875 18.355469 C 24.085938 18.617188 24.789062 19.101562 25.292969 19.808594 C 25.792969 20.511719 26.042969 21.378906 26.042969 22.402344 C 26.042969 23.972656 25.503906 25.144531 24.429688 25.914062 C 23.355469 26.683594 21.722656 27.070312 19.53125 27.070312 L 12.480469 27.070312 L 12.480469 10.792969 L 18.859375 10.792969 C 21.144531 10.792969 22.800781 11.132812 23.824219 11.816406 C 24.855469 12.5 25.367188 13.59375 25.367188 15.101562 C 25.367188 15.894531 25.179688 16.570312 24.804688 17.128906 C 24.429688 17.679688 23.882812 18.089844 23.171875 18.359375 " fill-opacity="1" fill-rule="nonzero"/></svg>