<svg xmlns="http://www.w3.org/2000/svg" xmlns:xlink="http://www.w3.org/1999/xlink" width="500" zoomAndPan="magnify" viewBox="0 0 375 374.999991" height="500" preserveAspectRatio="xMidYMid meet" version="1.0"><defs><clipPath id="c27ba6ea5e"><path d="M 37.5 37.5 L 337.5 37.5 L 337.5 337.5 L 37.5 337.5 Z M 37.5 37.5 " clip-rule="nonzero"/></clipPath></defs><g clip-path="url(#c27ba6ea5e)"><path fill="#1b0739" d="M 187.53125 37.5 C 270.386719 37.5 337.5625 104.675781 337.5625 187.53125 C 337.5625 270.386719 270.324219 337.5 187.53125 337.5 C 104.734375 337.5 37.5 270.324219 37.5 187.53125 C 37.5 104.734375 104.675781 37.5 187.53125 37.5 Z M 187.53125 37.5 " fill-opacity="1" fill-rule="nonzero"/></g><path fill="#fff9f1" d="M 140.246094 206.808594 C 136.460938 211.8125 131.644531 217.242188 125.175781 221.332031 C 118.832031 225.296875 111.8125 228.53125 103.453125 228.53125 C 95.765625 228.53125 89.179688 224.441406 85.578125 221.085938 C 80.207031 216.085938 77.339844 208.640625 76.546875 201.808594 C 73.925781 180.332031 87.042969 152.144531 107.359375 139.820312 C 112.058594 137.011719 117.242188 135.546875 122.003906 135.546875 C 131.765625 135.546875 139.085938 142.503906 140.0625 150.800781 C 140.976562 158.304688 137.988281 164.773438 129.628906 168.984375 C 125.359375 171.117188 123.285156 171.058594 122.613281 170.019531 C 122.1875 169.347656 122.429688 168.1875 123.285156 167.457031 C 131.15625 160.929688 131.277344 155.558594 130.363281 147.996094 C 129.75 143.113281 126.578125 140 122.980469 140 C 107.542969 140 85.394531 174.472656 88.507812 199.550781 C 89.726562 209.3125 95.707031 220.660156 108.09375 220.660156 C 112.179688 220.660156 116.574219 219.5 120.417969 217.546875 C 129.019531 213.15625 132.863281 209.984375 138.050781 202.90625 C 138.71875 201.992188 139.332031 200.953125 140.125 199.917969 C 140.671875 199 141.40625 198.757812 142.015625 198.757812 C 142.808594 198.757812 143.480469 199.429688 143.664062 200.402344 C 143.785156 201.199219 143.539062 202.355469 142.625 203.515625 C 141.769531 204.613281 141.039062 205.773438 140.246094 206.808594 Z M 163.613281 219.441406 C 159.769531 219.441406 157.574219 217.367188 156.839844 214.316406 C 154.277344 217.671875 150.921875 219.441406 147.324219 219.441406 C 141.40625 219.441406 135.792969 214.4375 134.9375 207.726562 C 133.472656 196.011719 143.601562 180.878906 158.792969 180.878906 C 165.199219 180.878906 170.570312 183.441406 171.179688 188.566406 C 171.972656 194.972656 166.480469 196.253906 164.40625 196.253906 C 162.636719 196.253906 159.707031 195.765625 159.527344 194.058594 C 159.28125 192.289062 163.429688 193.265625 162.941406 189.179688 C 162.636719 186.617188 159.953125 185.699219 157.390625 185.699219 C 148.117188 185.699219 143.050781 198.574219 144.027344 206.503906 C 144.457031 210.105469 146.347656 213.703125 149.640625 213.703125 C 152.324219 213.703125 156.230469 209.859375 157.757812 204.1875 C 158.671875 200.34375 162.394531 197.78125 165.078125 197.78125 C 166.480469 197.78125 167.457031 198.453125 167.640625 199.855469 C 167.703125 200.34375 167.640625 201.015625 167.519531 201.808594 C 167.214844 203.453125 165.933594 209.066406 165.992188 210.226562 C 166.054688 211.203125 166.601562 212.605469 168.371094 212.605469 C 170.324219 212.605469 179.414062 207.296875 184.722656 200.097656 C 185.152344 199.429688 186.003906 199.0625 186.796875 199.0625 C 187.589844 199.0625 188.261719 199.429688 188.382812 200.34375 C 188.507812 201.257812 188.140625 202.417969 187.042969 203.941406 C 180.695312 212.300781 168.066406 219.441406 163.613281 219.441406 Z M 291.253906 215.046875 C 291.679688 218.769531 293.449219 221.210938 295.035156 222.613281 C 295.585938 223.101562 295.949219 223.773438 296.011719 224.136719 C 296.132812 225.175781 295.339844 226.089844 294.058594 226.089844 C 293.691406 226.089844 293.144531 226.089844 292.714844 225.847656 C 286.066406 223.160156 283.320312 218.648438 282.589844 214.375 C 280.027344 217.609375 276.671875 219.378906 273.191406 219.378906 C 267.273438 219.378906 261.476562 214.253906 260.683594 207.542969 C 259.28125 195.949219 269.777344 180.820312 284.664062 180.820312 C 290.945312 180.820312 296.378906 183.257812 297.046875 188.382812 C 297.839844 194.972656 292.226562 196.253906 290.277344 196.253906 C 288.324219 196.253906 285.457031 195.707031 285.273438 194.058594 C 285.089844 192.410156 289.300781 193.265625 288.8125 189.300781 C 288.507812 186.738281 285.820312 185.699219 283.199219 185.699219 C 274.597656 185.699219 268.675781 197.171875 269.777344 206.382812 C 270.265625 210.105469 271.972656 213.703125 275.328125 213.703125 C 278.011719 213.703125 282.039062 209.859375 283.566406 204.1875 C 284.539062 200.464844 288.203125 197.78125 290.886719 197.78125 C 292.167969 197.78125 293.265625 198.453125 293.449219 199.976562 C 293.570312 200.769531 293.203125 202.417969 291.800781 208.457031 C 291.128906 211.082031 291.007812 213.21875 291.253906 215.046875 Z M 211.203125 212.730469 C 213.277344 212.730469 219.988281 210.167969 225.238281 202.964844 C 225.785156 202.296875 226.519531 201.929688 227.3125 201.929688 C 228.226562 201.929688 228.898438 202.296875 229.019531 203.332031 C 229.140625 204.125 228.59375 205.285156 227.492188 206.808594 C 221.453125 215.167969 211.265625 219.441406 206.75 219.441406 C 202.113281 219.441406 199.609375 216.632812 199.0625 212.363281 C 198.878906 210.960938 198.941406 209.25 199.246094 207.480469 C 200.769531 197.964844 204.308594 192.046875 204.066406 190.277344 C 204.003906 189.789062 203.699219 189.484375 203.332031 189.484375 C 200.34375 189.484375 189.972656 200.160156 188.382812 207.238281 L 187.164062 212.910156 C 186.371094 216.878906 182.464844 219.5 179.722656 219.5 C 178.441406 219.5 177.464844 218.828125 177.28125 217.425781 C 177.21875 216.9375 177.28125 216.265625 177.402344 215.472656 C 177.402344 215.472656 182.527344 189.117188 182.769531 187.835938 C 183.320312 184.722656 184.480469 181.550781 190.765625 181.550781 C 192.046875 181.550781 193.023438 182.222656 193.203125 183.746094 C 193.265625 184.234375 193.203125 184.90625 193.082031 185.699219 L 191.3125 193.632812 C 196.867188 186.308594 205.40625 180.878906 210.59375 180.878906 C 212.789062 180.878906 214.4375 182.039062 214.742188 184.359375 C 214.925781 185.640625 214.5 187.835938 213.644531 190.277344 C 211.8125 195.277344 209.738281 202.84375 208.398438 209.3125 C 208.214844 210.59375 208.640625 212.730469 211.203125 212.730469 Z M 254.21875 201.257812 C 253.425781 201.257812 252.8125 201.257812 252.019531 201.136719 C 246.226562 209.496094 240.183594 215.292969 235.546875 217.855469 C 233.59375 218.890625 231.824219 219.378906 230.542969 219.378906 C 229.507812 219.378906 228.347656 219.136719 227.859375 218.21875 C 225.785156 214.742188 224.871094 207.664062 224.871094 200.34375 C 224.871094 194.914062 225.238281 190.582031 226.273438 187.347656 C 227.3125 183.992188 231.519531 180.820312 234.386719 180.820312 C 235.792969 180.820312 236.828125 181.613281 236.828125 183.136719 C 236.828125 183.625 236.707031 184.296875 236.460938 184.90625 C 234.511719 190.582031 233.472656 195.828125 233.472656 201.136719 C 233.472656 204.066406 234.144531 208.824219 234.753906 211.265625 C 234.875 211.753906 235 212.300781 235.546875 212.300781 C 236.460938 212.300781 242.503906 206.382812 246.835938 199.183594 C 242.992188 196.742188 240.792969 192.226562 240.792969 186.738281 C 240.792969 177.464844 246.347656 172.703125 251.714844 172.703125 C 255.988281 172.703125 259.832031 175.816406 259.832031 181.976562 C 259.832031 185.820312 258.304688 190.214844 256.109375 194.425781 C 256.109375 194.425781 257.023438 194.546875 257.390625 194.546875 C 260.746094 194.546875 263.308594 193.023438 264.710938 191.3125 C 265.75 190.152344 266.664062 189.359375 267.519531 189.359375 C 268.1875 189.359375 268.433594 189.847656 268.433594 190.519531 C 268.433594 190.886719 268.3125 191.558594 267.945312 192.167969 C 264.894531 197.839844 258.976562 201.257812 254.21875 201.257812 Z M 246.347656 181.976562 C 246.347656 185.578125 248.117188 189.300781 250.433594 191.742188 C 251.351562 189.300781 251.839844 186.859375 251.839844 184.417969 C 251.839844 179.78125 250.070312 177.707031 248.605469 177.707031 C 247.019531 177.769531 246.347656 180.085938 246.347656 181.976562 Z M 163.613281 163.246094 L 156.65625 146.101562 L 156.535156 146.101562 C 156.597656 147.140625 156.65625 148.238281 156.65625 149.335938 L 156.65625 163.308594 L 155.4375 163.308594 L 155.4375 144.699219 L 157.453125 144.699219 L 164.039062 161.050781 L 164.101562 161.050781 L 170.691406 144.699219 L 172.644531 144.699219 L 172.644531 163.308594 L 171.363281 163.308594 L 171.363281 149.152344 C 171.363281 148.175781 171.421875 147.140625 171.484375 146.101562 L 171.363281 146.101562 L 164.40625 163.246094 Z M 192.046875 156.71875 L 184.480469 156.71875 L 181.855469 163.308594 L 180.390625 163.308594 L 187.898438 144.636719 L 188.75 144.636719 L 196.074219 163.308594 L 194.609375 163.308594 Z M 184.96875 155.558594 L 191.617188 155.558594 L 189.117188 148.847656 C 188.933594 148.300781 188.628906 147.566406 188.382812 146.652344 C 188.140625 147.445312 187.898438 148.175781 187.652344 148.847656 Z M 218.097656 153.789062 C 218.097656 156.902344 217.304688 159.28125 215.65625 160.867188 C 214.011719 162.453125 211.628906 163.246094 208.457031 163.246094 L 204.003906 163.246094 L 204.003906 144.636719 L 209.007812 144.636719 C 211.996094 144.636719 214.253906 145.433594 215.78125 146.957031 C 217.304688 148.542969 218.097656 150.800781 218.097656 153.789062 Z M 216.695312 153.851562 C 216.695312 151.167969 216.023438 149.152344 214.679688 147.8125 C 213.339844 146.46875 211.324219 145.796875 208.703125 145.796875 L 205.285156 145.796875 L 205.285156 162.089844 L 208.335938 162.089844 C 213.886719 162.148438 216.695312 159.34375 216.695312 153.851562 Z M 237.742188 163.246094 L 227.554688 163.246094 L 227.554688 144.636719 L 237.742188 144.636719 L 237.742188 145.859375 L 228.898438 145.859375 L 228.898438 152.875 L 237.257812 152.875 L 237.257812 154.09375 L 228.898438 154.09375 L 228.898438 162.089844 L 237.742188 162.089844 Z M 259.160156 163.246094 L 259.160156 144.636719 L 260.441406 144.636719 L 260.441406 163.246094 Z M 284.480469 163.246094 L 283.199219 163.246094 L 272.15625 146.714844 L 272.035156 146.714844 C 272.15625 148.664062 272.15625 150.191406 272.15625 151.167969 L 272.15625 163.246094 L 270.933594 163.246094 L 270.933594 144.636719 L 272.214844 144.636719 L 283.199219 161.113281 L 283.257812 161.113281 C 283.199219 159.585938 283.136719 158.121094 283.136719 156.78125 L 283.136719 144.636719 L 284.417969 144.636719 L 284.417969 163.246094 Z M 284.480469 163.246094 " fill-opacity="1" fill-rule="nonzero"/></svg>