<svg xmlns="http://www.w3.org/2000/svg" xmlns:xlink="http://www.w3.org/1999/xlink" width="100" zoomAndPan="magnify" viewBox="0 0 75 74.999997" height="100" preserveAspectRatio="xMidYMid meet" version="1.0"><defs><clipPath id="b4143ae97c"><path d="M 9.976562 9.976562 L 64.726562 9.976562 L 64.726562 64.726562 L 9.976562 64.726562 Z M 9.976562 9.976562 " clip-rule="nonzero"/></clipPath><clipPath id="868e8d125c"><path d="M 5 10 L 70.75 10 L 70.75 66.976562 L 5 66.976562 Z M 5 10 " clip-rule="nonzero"/></clipPath></defs><g clip-path="url(#b4143ae97c)"><path fill="#2da3a9" d="M 13.703125 9.976562 L 60.996094 9.976562 C 63.054688 9.976562 64.726562 11.644531 64.726562 13.703125 L 64.726562 60.996094 C 64.726562 63.054688 63.054688 64.726562 60.996094 64.726562 L 13.703125 64.726562 C 11.644531 64.726562 9.976562 63.054688 9.976562 60.996094 L 9.976562 13.703125 C 9.976562 11.644531 11.644531 9.976562 13.703125 9.976562 " fill-opacity="1" fill-rule="nonzero"/></g><g clip-path="url(#868e8d125c)"><path fill="#1b0739" d="M 6.351562 41.382812 C 11.367188 44.875 13.988281 45.507812 18.3125 52.832031 C 22.632812 60.160156 23.390625 65.140625 24.527344 66.058594 C 25.664062 66.972656 31.351562 65.828125 34.308594 64.226562 C 37.265625 62.625 37.378906 61.738281 40.136719 55.242188 C 43.96875 46.234375 50.183594 35.175781 54.960938 28.765625 C 59.738281 22.355469 69.796875 13.925781 70.253906 12.324219 C 70.707031 10.722656 65.929688 9.976562 61.382812 11.351562 C 56.832031 12.726562 47.246094 23.332031 41.460938 31.675781 C 35.03125 40.949219 32.746094 48.777344 31.609375 48.546875 C 30.46875 48.320312 28.246094 43.652344 25.0625 40.21875 C 21.878906 36.785156 18.519531 34.457031 14.652344 35.144531 C 10.785156 35.832031 4.035156 39.769531 6.351562 41.382812 " fill-opacity="1" fill-rule="nonzero"/></g></svg>