<svg xmlns="http://www.w3.org/2000/svg" xmlns:xlink="http://www.w3.org/1999/xlink" width="500" zoomAndPan="magnify" viewBox="0 0 375 374.999991" height="500" preserveAspectRatio="xMidYMid meet" version="1.0"><defs><clipPath id="9824e1909d"><path d="M 31.082031 67.644531 L 343.832031 67.644531 L 343.832031 307.644531 L 31.082031 307.644531 Z M 31.082031 67.644531 " clip-rule="nonzero"/></clipPath></defs><g clip-path="url(#9824e1909d)"><path fill="#1b0739" d="M 326.402344 67.796875 L 48.511719 67.796875 C 38.902344 67.796875 31.082031 75.625 31.082031 85.25 L 31.082031 290.039062 C 31.082031 299.664062 38.902344 307.496094 48.511719 307.496094 L 326.402344 307.496094 C 336.015625 307.496094 343.832031 299.664062 343.832031 290.039062 L 343.832031 85.25 C 343.832031 75.625 336.015625 67.796875 326.402344 67.796875 Z M 48.511719 77.582031 L 326.402344 77.582031 C 330.625 77.582031 334.058594 81.023438 334.058594 85.25 L 334.058594 115.566406 L 40.855469 115.566406 L 40.855469 85.25 C 40.855469 81.023438 44.289062 77.582031 48.511719 77.582031 Z M 326.402344 297.707031 L 48.511719 297.707031 C 44.289062 297.707031 40.855469 294.269531 40.855469 290.039062 L 40.855469 125.355469 L 334.058594 125.355469 L 334.058594 290.039062 C 334.058594 294.269531 330.625 297.707031 326.402344 297.707031 Z M 198.675781 202.847656 L 198.675781 211.453125 C 198.675781 214.15625 196.488281 216.347656 193.789062 216.347656 C 191.09375 216.347656 188.902344 214.15625 188.902344 211.453125 L 188.902344 202.847656 C 188.902344 201.949219 188.144531 201.1875 187.242188 201.1875 L 168.757812 201.1875 C 167.855469 201.1875 167.09375 201.949219 167.09375 202.847656 L 167.09375 243.863281 C 167.09375 244.765625 167.855469 245.527344 168.757812 245.527344 L 187.242188 245.527344 C 188.144531 245.527344 188.902344 244.765625 188.902344 243.863281 L 188.902344 235.257812 C 188.902344 232.554688 191.09375 230.367188 193.789062 230.367188 C 196.488281 230.367188 198.675781 232.554688 198.675781 235.257812 L 198.675781 243.863281 C 198.675781 250.175781 193.550781 255.3125 187.242188 255.3125 L 168.757812 255.3125 C 162.453125 255.3125 157.320312 250.179688 157.320312 243.863281 L 157.320312 202.847656 C 157.320312 196.535156 162.449219 191.398438 168.757812 191.398438 L 187.242188 191.398438 C 193.550781 191.398438 198.675781 196.535156 198.675781 202.847656 Z M 235.976562 191.398438 L 210.941406 191.398438 C 208.242188 191.398438 206.054688 193.589844 206.054688 196.292969 L 206.054688 250.417969 C 206.054688 253.121094 208.242188 255.3125 210.941406 255.3125 C 213.640625 255.3125 215.828125 253.121094 215.828125 250.417969 L 215.828125 228.25 L 223.929688 228.25 L 238.304688 252.886719 C 239.210938 254.445312 240.847656 255.3125 242.527344 255.3125 C 243.363281 255.3125 244.214844 255.097656 244.988281 254.644531 C 247.316406 253.28125 248.105469 250.285156 246.742188 247.949219 L 235.246094 228.25 L 235.976562 228.25 C 242.28125 228.25 247.410156 223.113281 247.410156 216.800781 L 247.410156 202.847656 C 247.410156 196.535156 242.28125 191.398438 235.976562 191.398438 Z M 237.636719 216.800781 C 237.636719 217.699219 236.875 218.460938 235.976562 218.460938 L 215.828125 218.460938 L 215.828125 201.1875 L 235.976562 201.1875 C 236.875 201.1875 237.636719 201.949219 237.636719 202.847656 Z M 296.140625 196.292969 L 296.140625 250.417969 C 296.140625 253.121094 293.953125 255.3125 291.253906 255.3125 C 288.554688 255.3125 286.367188 253.121094 286.367188 250.417969 L 286.367188 214.367188 L 279.683594 225.824219 C 278.808594 227.328125 277.203125 228.25 275.464844 228.25 C 273.726562 228.25 272.121094 227.328125 271.246094 225.824219 L 264.5625 214.367188 L 264.5625 250.417969 C 264.5625 253.121094 262.375 255.3125 259.675781 255.3125 C 256.976562 255.3125 254.789062 253.121094 254.789062 250.417969 L 254.789062 196.292969 C 254.789062 194.082031 256.265625 192.148438 258.398438 191.570312 C 260.527344 190.988281 262.78125 191.914062 263.894531 193.824219 L 275.464844 213.65625 L 287.035156 193.824219 C 288.148438 191.917969 290.398438 190.988281 292.53125 191.570312 C 294.660156 192.144531 296.140625 194.082031 296.140625 196.292969 Z M 106.214844 147.414062 C 106.214844 150.117188 104.023438 152.308594 101.328125 152.308594 L 67.742188 152.308594 C 65.046875 152.308594 62.855469 150.117188 62.855469 147.414062 C 62.855469 144.710938 65.046875 142.519531 67.742188 142.519531 L 101.328125 142.519531 C 104.023438 142.519531 106.214844 144.710938 106.214844 147.414062 Z M 106.214844 179.472656 C 106.214844 182.175781 104.023438 184.367188 101.328125 184.367188 L 67.742188 184.367188 C 65.046875 184.367188 62.855469 182.175781 62.855469 179.472656 C 62.855469 176.769531 65.046875 174.578125 67.742188 174.578125 L 101.328125 174.578125 C 104.023438 174.578125 106.214844 176.769531 106.214844 179.472656 Z M 106.214844 211.53125 C 106.214844 214.234375 104.023438 216.425781 101.328125 216.425781 L 67.742188 216.425781 C 65.046875 216.425781 62.855469 214.234375 62.855469 211.53125 C 62.855469 208.828125 65.046875 206.636719 67.742188 206.636719 L 101.328125 206.636719 C 104.023438 206.636719 106.214844 208.828125 106.214844 211.53125 Z M 106.214844 243.589844 C 106.214844 246.292969 104.023438 248.484375 101.328125 248.484375 L 67.742188 248.484375 C 65.046875 248.484375 62.855469 246.292969 62.855469 243.589844 C 62.855469 240.886719 65.046875 238.695312 67.742188 238.695312 L 101.328125 238.695312 C 104.023438 238.695312 106.214844 240.886719 106.214844 243.589844 Z M 106.214844 275.648438 C 106.214844 278.351562 104.023438 280.542969 101.328125 280.542969 L 67.742188 280.542969 C 65.046875 280.542969 62.855469 278.351562 62.855469 275.648438 C 62.855469 272.945312 65.046875 270.753906 67.742188 270.753906 L 101.328125 270.753906 C 104.023438 270.753906 106.214844 272.945312 106.214844 275.648438 Z M 129.035156 147.414062 L 129.035156 275.648438 C 129.035156 278.351562 126.847656 280.542969 124.148438 280.542969 C 121.453125 280.542969 119.261719 278.351562 119.261719 275.648438 L 119.261719 147.414062 C 119.261719 144.710938 121.453125 142.519531 124.148438 142.519531 C 126.847656 142.519531 129.035156 144.710938 129.035156 147.414062 Z M 173.210938 152.308594 L 152.746094 152.308594 C 150.046875 152.308594 147.859375 150.117188 147.859375 147.414062 C 147.859375 144.710938 150.046875 142.519531 152.746094 142.519531 L 173.210938 142.519531 C 175.910156 142.519531 178.097656 144.710938 178.097656 147.414062 C 178.097656 150.117188 175.910156 152.308594 173.210938 152.308594 Z M 190.363281 147.414062 C 190.363281 144.710938 192.550781 142.519531 195.25 142.519531 L 215.714844 142.519531 C 218.410156 142.519531 220.601562 144.710938 220.601562 147.414062 C 220.601562 150.117188 218.410156 152.308594 215.714844 152.308594 L 195.25 152.308594 C 192.550781 152.308594 190.363281 150.117188 190.363281 147.414062 Z M 232.863281 147.414062 C 232.863281 144.710938 235.050781 142.519531 237.75 142.519531 L 258.214844 142.519531 C 260.914062 142.519531 263.101562 144.710938 263.101562 147.414062 C 263.101562 150.117188 260.914062 152.308594 258.214844 152.308594 L 237.75 152.308594 C 235.050781 152.308594 232.863281 150.117188 232.863281 147.414062 Z M 305.605469 147.414062 C 305.605469 150.117188 303.417969 152.308594 300.71875 152.308594 L 280.253906 152.308594 C 277.554688 152.308594 275.367188 150.117188 275.367188 147.414062 C 275.367188 144.710938 277.554688 142.519531 280.253906 142.519531 L 300.71875 142.519531 C 303.417969 142.519531 305.605469 144.710938 305.605469 147.414062 Z M 68.867188 96.574219 C 68.867188 92.53125 72.160156 89.234375 76.195312 89.234375 C 80.234375 89.234375 83.527344 92.53125 83.527344 96.574219 C 83.527344 100.617188 80.234375 103.917969 76.195312 103.917969 C 72.160156 103.917969 68.867188 100.617188 68.867188 96.574219 Z M 97.003906 96.574219 C 97.003906 92.53125 100.296875 89.234375 104.332031 89.234375 C 108.371094 89.234375 111.664062 92.53125 111.664062 96.574219 C 111.664062 100.617188 108.371094 103.917969 104.332031 103.917969 C 100.296875 103.917969 97.003906 100.617188 97.003906 96.574219 Z M 125.140625 96.574219 C 125.140625 92.53125 128.433594 89.234375 132.46875 89.234375 C 136.507812 89.234375 139.800781 92.53125 139.800781 96.574219 C 139.800781 100.617188 136.507812 103.917969 132.46875 103.917969 C 128.433594 103.917969 125.140625 100.617188 125.140625 96.574219 Z M 125.140625 96.574219 " fill-opacity="1" fill-rule="evenodd"/></g></svg>