<svg xmlns="http://www.w3.org/2000/svg" xmlns:xlink="http://www.w3.org/1999/xlink" width="50" zoomAndPan="magnify" viewBox="0 0 37.5 37.499999" height="50" preserveAspectRatio="xMidYMid meet" version="1.0"><defs><clipPath id="708a5b9b03"><path d="M 7.238281 6 L 24 6 L 24 15 L 7.238281 15 Z M 7.238281 6 " clip-rule="nonzero"/></clipPath><clipPath id="2f47c8984c"><path d="M 24 6 L 30.488281 6 L 30.488281 12 L 24 12 Z M 24 6 " clip-rule="nonzero"/></clipPath><clipPath id="ab675c5dfb"><path d="M 10 5.59375 L 30.488281 5.59375 L 30.488281 13 L 10 13 Z M 10 5.59375 " clip-rule="nonzero"/></clipPath><clipPath id="c7d36c7d53"><path d="M 10 14 L 30.488281 14 L 30.488281 31.84375 L 10 31.84375 Z M 10 14 " clip-rule="nonzero"/></clipPath><clipPath id="cb847e0162"><path d="M 29 12 L 30.488281 12 L 30.488281 14 L 29 14 Z M 29 12 " clip-rule="nonzero"/></clipPath></defs><g clip-path="url(#708a5b9b03)"><path fill="#1b0739" d="M 22.601562 14.210938 L 7.65625 14.210938 C 7.539062 14.210938 7.441406 14.167969 7.359375 14.089844 C 7.28125 14.007812 7.238281 13.914062 7.238281 13.800781 L 7.238281 7.238281 C 7.238281 7.125 7.28125 7.027344 7.359375 6.949219 C 7.441406 6.867188 7.539062 6.828125 7.65625 6.828125 L 22.601562 6.828125 C 22.714844 6.828125 22.8125 6.867188 22.894531 6.949219 C 22.976562 7.027344 23.015625 7.125 23.015625 7.238281 L 23.015625 13.800781 C 23.015625 13.914062 22.976562 14.007812 22.894531 14.089844 C 22.8125 14.167969 22.714844 14.210938 22.601562 14.210938 Z M 8.070312 13.390625 L 22.1875 13.390625 L 22.1875 7.648438 L 8.070312 7.648438 Z M 8.070312 13.390625 " fill-opacity="1" fill-rule="nonzero"/></g><g clip-path="url(#2f47c8984c)"><path fill="#1b0739" d="M 30.074219 11.339844 L 25.09375 11.339844 C 24.976562 11.339844 24.878906 11.300781 24.796875 11.21875 C 24.71875 11.140625 24.675781 11.042969 24.675781 10.929688 L 24.675781 6.007812 L 25.507812 6.007812 L 25.507812 10.519531 L 30.074219 10.519531 Z M 30.074219 11.339844 " fill-opacity="1" fill-rule="nonzero"/></g><g clip-path="url(#ab675c5dfb)"><path fill="#1b0739" d="M 30.488281 12.160156 L 29.660156 12.160156 L 29.660156 11.097656 L 24.921875 6.417969 L 11.390625 6.417969 L 11.390625 7.238281 L 10.5625 7.238281 L 10.5625 6.007812 C 10.5625 5.894531 10.601562 5.796875 10.683594 5.71875 C 10.765625 5.636719 10.863281 5.597656 10.976562 5.597656 L 25.09375 5.597656 C 25.207031 5.597656 25.304688 5.636719 25.386719 5.71875 L 30.367188 10.640625 C 30.449219 10.71875 30.488281 10.816406 30.488281 10.929688 Z M 30.488281 12.160156 " fill-opacity="1" fill-rule="nonzero"/></g><path fill="#1b0739" d="M 10.5625 15.03125 L 11.390625 15.03125 L 11.390625 15.851562 L 10.5625 15.851562 Z M 10.5625 15.03125 " fill-opacity="1" fill-rule="nonzero"/><path fill="#1b0739" d="M 10.5625 16.667969 L 11.390625 16.667969 L 11.390625 28.5625 L 10.5625 28.5625 Z M 10.5625 16.667969 " fill-opacity="1" fill-rule="nonzero"/><g clip-path="url(#c7d36c7d53)"><path fill="#1b0739" d="M 30.074219 31.84375 L 10.976562 31.84375 C 10.863281 31.84375 10.765625 31.800781 10.683594 31.722656 C 10.601562 31.644531 10.5625 31.546875 10.5625 31.433594 L 10.5625 29.382812 L 11.390625 29.382812 L 11.390625 31.023438 L 29.660156 31.023438 L 29.660156 14.621094 L 30.488281 14.621094 L 30.488281 31.433594 C 30.488281 31.546875 30.449219 31.644531 30.367188 31.722656 C 30.285156 31.800781 30.1875 31.84375 30.074219 31.84375 Z M 30.074219 31.84375 " fill-opacity="1" fill-rule="nonzero"/></g><g clip-path="url(#cb847e0162)"><path fill="#1b0739" d="M 29.660156 12.980469 L 30.488281 12.980469 L 30.488281 13.800781 L 29.660156 13.800781 Z M 29.660156 12.980469 " fill-opacity="1" fill-rule="nonzero"/></g><path fill="#1b0739" d="M 17.617188 26.921875 L 17.203125 26.921875 C 16.929688 26.921875 16.664062 26.871094 16.410156 26.765625 C 16.15625 26.660156 15.929688 26.511719 15.738281 26.320312 C 15.542969 26.128906 15.390625 25.90625 15.285156 25.65625 C 15.179688 25.40625 15.128906 25.144531 15.128906 24.871094 L 15.128906 23.640625 C 15.109375 23.585938 15.023438 23.539062 14.957031 23.5 C 14.757812 23.394531 14.578125 23.265625 14.417969 23.109375 C 14.335938 23.03125 14.296875 22.933594 14.296875 22.820312 C 14.296875 22.707031 14.335938 22.609375 14.417969 22.53125 C 14.578125 22.375 14.757812 22.246094 14.957031 22.140625 C 15.019531 22.109375 15.074219 22.074219 15.128906 22.03125 L 15.128906 20.769531 C 15.128906 20.5 15.179688 20.238281 15.285156 19.988281 C 15.390625 19.734375 15.542969 19.515625 15.738281 19.320312 C 15.929688 19.128906 16.15625 18.980469 16.410156 18.878906 C 16.664062 18.773438 16.929688 18.71875 17.203125 18.71875 L 17.617188 18.71875 L 17.617188 19.539062 L 17.203125 19.539062 C 17.039062 19.539062 16.878906 19.570312 16.726562 19.632812 C 16.574219 19.695312 16.441406 19.785156 16.324219 19.902344 C 16.207031 20.015625 16.117188 20.148438 16.054688 20.300781 C 15.988281 20.449219 15.957031 20.609375 15.957031 20.769531 L 15.957031 22 C 15.960938 22.386719 15.78125 22.660156 15.425781 22.820312 C 15.78125 22.980469 15.960938 23.253906 15.957031 23.640625 L 15.957031 24.871094 C 15.957031 25.035156 15.988281 25.191406 16.054688 25.34375 C 16.117188 25.492188 16.207031 25.625 16.324219 25.742188 C 16.441406 25.855469 16.574219 25.945312 16.726562 26.007812 C 16.878906 26.070312 17.039062 26.101562 17.203125 26.101562 L 17.617188 26.101562 Z M 17.617188 26.921875 " fill-opacity="1" fill-rule="nonzero"/><path fill="#1b0739" d="M 23.847656 26.921875 L 23.429688 26.921875 L 23.429688 26.101562 L 23.847656 26.101562 C 24.011719 26.101562 24.171875 26.070312 24.324219 26.007812 C 24.476562 25.945312 24.609375 25.855469 24.726562 25.742188 C 24.84375 25.625 24.933594 25.492188 24.996094 25.34375 C 25.0625 25.191406 25.09375 25.035156 25.09375 24.871094 L 25.09375 23.640625 C 25.089844 23.253906 25.269531 22.980469 25.625 22.820312 C 25.269531 22.660156 25.089844 22.386719 25.09375 22 L 25.09375 20.769531 C 25.09375 20.609375 25.0625 20.449219 24.996094 20.300781 C 24.933594 20.148438 24.84375 20.015625 24.726562 19.902344 C 24.609375 19.785156 24.476562 19.695312 24.324219 19.632812 C 24.171875 19.570312 24.011719 19.539062 23.847656 19.539062 L 23.429688 19.539062 L 23.429688 18.71875 L 23.847656 18.71875 C 24.121094 18.71875 24.386719 18.773438 24.640625 18.878906 C 24.894531 18.980469 25.121094 19.128906 25.3125 19.320312 C 25.507812 19.515625 25.660156 19.734375 25.765625 19.988281 C 25.871094 20.238281 25.921875 20.5 25.921875 20.769531 L 25.921875 22 C 25.941406 22.054688 26.027344 22.105469 26.09375 22.140625 C 26.292969 22.246094 26.472656 22.375 26.632812 22.53125 C 26.714844 22.609375 26.753906 22.707031 26.753906 22.820312 C 26.753906 22.933594 26.714844 23.03125 26.632812 23.109375 C 26.472656 23.265625 26.292969 23.394531 26.09375 23.5 C 26.03125 23.53125 25.976562 23.570312 25.921875 23.609375 L 25.921875 24.871094 C 25.921875 25.144531 25.871094 25.40625 25.765625 25.65625 C 25.660156 25.90625 25.507812 26.128906 25.3125 26.320312 C 25.121094 26.511719 24.894531 26.660156 24.640625 26.765625 C 24.386719 26.871094 24.121094 26.921875 23.847656 26.921875 Z M 23.847656 26.921875 " fill-opacity="1" fill-rule="nonzero"/><path fill="#1b0739" d="M 18.449219 12.570312 C 17.136719 12.570312 16.789062 11.765625 16.789062 11.339844 L 17.203125 11.339844 L 17.617188 11.328125 C 17.625 11.398438 17.683594 11.75 18.449219 11.75 C 18.5625 11.75 18.660156 11.707031 18.742188 11.628906 C 18.824219 11.546875 18.863281 11.453125 18.863281 11.339844 C 18.863281 11.226562 18.824219 11.128906 18.742188 11.050781 C 18.660156 10.96875 18.5625 10.929688 18.449219 10.929688 L 18.035156 10.929688 C 17.867188 10.929688 17.710938 10.898438 17.558594 10.835938 C 17.40625 10.773438 17.269531 10.683594 17.152344 10.570312 C 17.035156 10.453125 16.945312 10.320312 16.882812 10.167969 C 16.820312 10.019531 16.789062 9.863281 16.789062 9.699219 C 16.789062 9.535156 16.820312 9.378906 16.882812 9.226562 C 16.945312 9.078125 17.035156 8.945312 17.152344 8.828125 C 17.269531 8.714844 17.40625 8.625 17.558594 8.5625 C 17.710938 8.5 17.867188 8.46875 18.035156 8.46875 C 19.347656 8.46875 19.695312 9.273438 19.695312 9.699219 L 18.863281 9.699219 C 18.859375 9.640625 18.796875 9.289062 18.035156 9.289062 C 17.917969 9.289062 17.820312 9.328125 17.742188 9.410156 C 17.660156 9.488281 17.617188 9.585938 17.617188 9.699219 C 17.617188 9.8125 17.660156 9.910156 17.742188 9.988281 C 17.820312 10.070312 17.917969 10.109375 18.035156 10.109375 L 18.449219 10.109375 C 18.613281 10.109375 18.773438 10.140625 18.925781 10.203125 C 19.078125 10.265625 19.214844 10.355469 19.332031 10.46875 C 19.445312 10.585938 19.535156 10.71875 19.601562 10.867188 C 19.664062 11.019531 19.695312 11.175781 19.695312 11.339844 C 19.695312 11.503906 19.664062 11.660156 19.601562 11.808594 C 19.535156 11.960938 19.445312 12.09375 19.332031 12.207031 C 19.214844 12.324219 19.078125 12.414062 18.925781 12.476562 C 18.773438 12.539062 18.613281 12.570312 18.449219 12.570312 Z M 18.449219 12.570312 " fill-opacity="1" fill-rule="nonzero"/><path fill="#1b0739" d="M 14.710938 12.570312 C 13.398438 12.570312 13.050781 11.765625 13.050781 11.339844 L 13.46875 11.339844 L 13.882812 11.328125 C 13.886719 11.398438 13.949219 11.75 14.710938 11.75 C 14.828125 11.75 14.925781 11.707031 15.007812 11.628906 C 15.085938 11.546875 15.128906 11.453125 15.128906 11.339844 C 15.128906 11.226562 15.085938 11.128906 15.007812 11.050781 C 14.925781 10.96875 14.828125 10.929688 14.710938 10.929688 L 14.296875 10.929688 C 14.132812 10.929688 13.972656 10.898438 13.820312 10.835938 C 13.667969 10.773438 13.535156 10.683594 13.417969 10.570312 C 13.300781 10.453125 13.210938 10.320312 13.148438 10.167969 C 13.082031 10.019531 13.050781 9.863281 13.050781 9.699219 C 13.050781 9.535156 13.082031 9.378906 13.148438 9.226562 C 13.210938 9.078125 13.300781 8.945312 13.417969 8.828125 C 13.535156 8.714844 13.667969 8.625 13.820312 8.5625 C 13.972656 8.5 14.132812 8.46875 14.296875 8.46875 C 15.609375 8.46875 15.957031 9.273438 15.957031 9.699219 L 15.128906 9.699219 C 15.125 9.640625 15.0625 9.289062 14.296875 9.289062 C 14.183594 9.289062 14.085938 9.328125 14.003906 9.410156 C 13.921875 9.488281 13.882812 9.585938 13.882812 9.699219 C 13.882812 9.8125 13.921875 9.910156 14.003906 9.988281 C 14.085938 10.070312 14.183594 10.109375 14.296875 10.109375 L 14.710938 10.109375 C 14.878906 10.109375 15.035156 10.140625 15.191406 10.203125 C 15.34375 10.265625 15.476562 10.355469 15.59375 10.46875 C 15.710938 10.585938 15.800781 10.71875 15.863281 10.867188 C 15.925781 11.019531 15.957031 11.175781 15.957031 11.339844 C 15.957031 11.503906 15.925781 11.660156 15.863281 11.808594 C 15.800781 11.960938 15.710938 12.09375 15.59375 12.207031 C 15.476562 12.324219 15.34375 12.414062 15.191406 12.476562 C 15.035156 12.539062 14.878906 12.570312 14.710938 12.570312 Z M 14.710938 12.570312 " fill-opacity="1" fill-rule="nonzero"/><path fill="#1b0739" d="M 12.222656 12.570312 L 11.804688 12.570312 C 11.53125 12.570312 11.265625 12.515625 11.011719 12.414062 C 10.757812 12.308594 10.535156 12.160156 10.339844 11.96875 C 10.144531 11.777344 9.992188 11.554688 9.890625 11.304688 C 9.785156 11.050781 9.730469 10.789062 9.730469 10.519531 C 9.730469 10.246094 9.785156 9.984375 9.890625 9.734375 C 9.992188 9.484375 10.144531 9.261719 10.339844 9.070312 C 10.535156 8.875 10.757812 8.726562 11.011719 8.625 C 11.265625 8.519531 11.53125 8.46875 11.804688 8.46875 L 12.222656 8.46875 L 12.222656 9.289062 L 11.804688 9.289062 C 11.640625 9.289062 11.484375 9.320312 11.328125 9.382812 C 11.175781 9.445312 11.042969 9.535156 10.925781 9.648438 C 10.808594 9.765625 10.71875 9.898438 10.65625 10.046875 C 10.59375 10.199219 10.5625 10.355469 10.5625 10.519531 C 10.5625 10.683594 10.59375 10.839844 10.65625 10.988281 C 10.71875 11.140625 10.808594 11.273438 10.925781 11.386719 C 11.042969 11.503906 11.175781 11.59375 11.328125 11.65625 C 11.484375 11.71875 11.640625 11.75 11.804688 11.75 L 12.222656 11.75 Z M 12.222656 12.570312 " fill-opacity="1" fill-rule="nonzero"/></svg>