<svg xmlns="http://www.w3.org/2000/svg" xmlns:xlink="http://www.w3.org/1999/xlink" width="50" zoomAndPan="magnify" viewBox="0 0 37.5 37.499999" height="50" preserveAspectRatio="xMidYMid meet" version="1.0"><defs><clipPath id="f9d1b0674b"><path d="M 3.75 3.75 L 33.75 3.75 L 33.75 33.75 L 3.75 33.75 Z M 3.75 3.75 " clip-rule="nonzero"/></clipPath></defs><g clip-path="url(#f9d1b0674b)"><path fill="#1b0739" d="M 33.183594 17.414062 L 20.085938 4.316406 C 19.90625 4.136719 19.695312 3.996094 19.460938 3.898438 C 19.222656 3.800781 18.976562 3.75 18.71875 3.75 C 18.464844 3.75 18.21875 3.800781 17.980469 3.898438 C 17.742188 3.996094 17.535156 4.136719 17.355469 4.316406 L 14.636719 7.035156 L 18.085938 10.484375 C 18.886719 10.203125 19.804688 10.394531 20.445312 11.035156 C 20.757812 11.347656 20.960938 11.714844 21.058594 12.144531 C 21.15625 12.574219 21.132812 12.996094 20.992188 13.410156 L 24.316406 16.734375 C 25.121094 16.457031 26.046875 16.636719 26.691406 17.28125 C 26.90625 17.496094 27.074219 17.746094 27.1875 18.027344 C 27.304688 18.308594 27.363281 18.601562 27.363281 18.90625 C 27.363281 19.210938 27.304688 19.503906 27.191406 19.789062 C 27.074219 20.070312 26.90625 20.316406 26.691406 20.535156 C 26.476562 20.75 26.226562 20.914062 25.945312 21.03125 C 25.664062 21.148438 25.371094 21.207031 25.0625 21.207031 C 24.757812 21.207031 24.464844 21.148438 24.183594 21.03125 C 23.902344 20.914062 23.652344 20.746094 23.4375 20.53125 C 22.761719 19.855469 22.597656 18.863281 22.9375 18.03125 L 19.835938 14.929688 L 19.835938 23.089844 C 20.0625 23.203125 20.265625 23.347656 20.445312 23.527344 C 20.660156 23.742188 20.828125 23.992188 20.945312 24.273438 C 21.0625 24.554688 21.121094 24.847656 21.121094 25.152344 C 21.121094 25.457031 21.0625 25.75 20.945312 26.03125 C 20.828125 26.3125 20.660156 26.5625 20.445312 26.777344 C 20.230469 26.992188 19.980469 27.160156 19.699219 27.277344 C 19.417969 27.394531 19.125 27.449219 18.820312 27.449219 C 18.515625 27.449219 18.222656 27.394531 17.941406 27.277344 C 17.660156 27.160156 17.410156 26.992188 17.195312 26.777344 C 16.980469 26.5625 16.8125 26.3125 16.695312 26.03125 C 16.578125 25.75 16.519531 25.457031 16.519531 25.152344 C 16.519531 24.847656 16.578125 24.554688 16.695312 24.273438 C 16.8125 23.992188 16.980469 23.742188 17.195312 23.527344 C 17.417969 23.304688 17.664062 23.136719 17.949219 23.023438 L 17.949219 14.789062 C 17.671875 14.675781 17.417969 14.507812 17.195312 14.285156 C 16.863281 13.957031 16.65625 13.5625 16.5625 13.105469 C 16.472656 12.648438 16.519531 12.203125 16.699219 11.773438 L 13.296875 8.371094 L 4.316406 17.34375 C 4.132812 17.523438 3.996094 17.734375 3.894531 17.96875 C 3.796875 18.207031 3.75 18.453125 3.75 18.710938 C 3.75 18.964844 3.796875 19.214844 3.894531 19.449219 C 3.996094 19.6875 4.132812 19.894531 4.316406 20.078125 L 17.414062 33.171875 C 17.59375 33.355469 17.804688 33.496094 18.039062 33.59375 C 18.277344 33.691406 18.523438 33.738281 18.78125 33.738281 C 19.035156 33.738281 19.28125 33.691406 19.519531 33.59375 C 19.757812 33.496094 19.964844 33.355469 20.144531 33.171875 L 33.183594 20.15625 C 33.363281 19.976562 33.503906 19.765625 33.601562 19.53125 C 33.699219 19.292969 33.75 19.046875 33.75 18.789062 C 33.75 18.535156 33.699219 18.285156 33.601562 18.050781 C 33.503906 17.8125 33.363281 17.605469 33.183594 17.421875 " fill-opacity="1" fill-rule="nonzero"/></g></svg>