<svg xmlns="http://www.w3.org/2000/svg" xmlns:xlink="http://www.w3.org/1999/xlink" width="500" zoomAndPan="magnify" viewBox="0 0 375 374.999991" height="500" preserveAspectRatio="xMidYMid meet" version="1.0"><defs><clipPath id="e4af2d7ff0"><path d="M 37.5 37.5 L 337.5 37.5 L 337.5 337.5 L 37.5 337.5 Z M 37.5 37.5 " clip-rule="nonzero"/></clipPath></defs><path fill="#2ca3a9" d="M 334.699219 187.503906 C 334.699219 268.800781 268.796875 334.703125 187.5 334.703125 C 106.203125 334.703125 40.300781 268.800781 40.300781 187.503906 C 40.300781 106.207031 106.203125 40.304688 187.5 40.304688 C 268.796875 40.304688 334.699219 106.207031 334.699219 187.503906 Z M 334.699219 187.503906 " fill-opacity="1" fill-rule="nonzero"/><g clip-path="url(#e4af2d7ff0)"><path fill="#fff9f1" d="M 187.5 337.5 C 167.253906 337.5 147.609375 333.535156 129.113281 325.710938 C 111.25 318.15625 95.210938 307.34375 81.433594 293.566406 C 67.660156 279.792969 56.847656 263.753906 49.289062 245.890625 C 41.46875 227.394531 37.503906 207.753906 37.503906 187.503906 C 37.503906 167.253906 41.46875 147.609375 49.289062 129.117188 C 56.847656 111.253906 67.660156 95.214844 81.433594 81.4375 C 95.210938 67.664062 111.25 56.847656 129.113281 49.292969 C 147.609375 41.472656 167.253906 37.503906 187.5 37.503906 C 207.75 37.503906 227.394531 41.472656 245.886719 49.292969 C 263.75 56.847656 279.789062 67.664062 293.566406 81.4375 C 307.339844 95.214844 318.152344 111.253906 325.710938 129.117188 C 333.53125 147.609375 337.496094 167.253906 337.496094 187.503906 C 337.496094 207.753906 333.53125 227.394531 325.710938 245.890625 C 318.152344 263.753906 307.339844 279.792969 293.566406 293.566406 C 279.789062 307.34375 263.75 318.15625 245.886719 325.710938 C 227.394531 333.535156 207.75 337.5 187.5 337.5 Z M 187.5 43.101562 C 107.875 43.101562 43.097656 107.878906 43.097656 187.503906 C 43.097656 267.125 107.875 331.90625 187.5 331.90625 C 267.125 331.90625 331.902344 267.125 331.902344 187.503906 C 331.902344 107.878906 267.125 43.101562 187.5 43.101562 Z M 187.5 43.101562 " fill-opacity="1" fill-rule="nonzero"/></g><path fill="#2ca3a9" d="M 258.722656 193.894531 C 258.722656 234.183594 226.503906 266.847656 186.753906 266.847656 C 147.007812 266.847656 114.785156 234.183594 114.785156 193.894531 C 114.785156 153.601562 147.007812 120.9375 186.753906 120.9375 C 202.515625 120.9375 217.09375 126.074219 228.949219 134.785156 " fill-opacity="1" fill-rule="nonzero"/><path fill="#fff9f1" d="M 186.753906 280.839844 C 175.132812 280.839844 163.851562 278.53125 153.226562 273.972656 C 142.984375 269.582031 133.792969 263.300781 125.90625 255.304688 C 118.03125 247.324219 111.847656 238.027344 107.53125 227.679688 C 103.0625 216.96875 100.796875 205.601562 100.796875 193.894531 C 100.796875 182.1875 103.0625 170.820312 107.53125 160.109375 C 111.847656 149.757812 118.03125 140.464844 125.90625 132.480469 C 133.792969 124.484375 142.984375 118.207031 153.226562 113.8125 C 163.851562 109.257812 175.132812 106.949219 186.753906 106.949219 C 205.03125 106.949219 222.488281 112.675781 237.234375 123.511719 L 220.664062 146.0625 C 210.753906 138.777344 199.027344 134.929688 186.753906 134.929688 C 154.785156 134.929688 128.777344 161.382812 128.777344 193.894531 C 128.777344 226.40625 154.785156 252.859375 186.753906 252.859375 C 218.722656 252.859375 244.734375 226.40625 244.734375 193.894531 L 272.714844 193.894531 C 272.714844 205.601562 270.449219 216.96875 265.980469 227.679688 C 261.660156 238.027344 255.480469 247.324219 247.605469 255.304688 C 239.71875 263.300781 230.523438 269.582031 220.28125 273.972656 C 209.65625 278.53125 198.375 280.839844 186.753906 280.839844 Z M 186.753906 280.839844 " fill-opacity="1" fill-rule="nonzero"/><path fill="#fff9f1" d="M 182.832031 179.296875 L 272.445312 179.296875 L 272.445312 207.28125 L 182.832031 207.28125 Z M 182.832031 179.296875 " fill-opacity="1" fill-rule="nonzero"/></svg>