<svg xmlns="http://www.w3.org/2000/svg" xmlns:xlink="http://www.w3.org/1999/xlink" width="50" zoomAndPan="magnify" viewBox="0 0 37.5 37.499999" height="50" preserveAspectRatio="xMidYMid meet" version="1.0"><defs><clipPath id="2d5ae561c7"><path d="M 7.007812 6 L 23 6 L 23 15 L 7.007812 15 Z M 7.007812 6 " clip-rule="nonzero"/></clipPath><clipPath id="edc80d87d7"><path d="M 24 5.328125 L 30 5.328125 L 30 12 L 24 12 Z M 24 5.328125 " clip-rule="nonzero"/></clipPath><clipPath id="e32f28ef1b"><path d="M 10 5.328125 L 30.257812 5.328125 L 30.257812 13 L 10 13 Z M 10 5.328125 " clip-rule="nonzero"/></clipPath><clipPath id="fa39c6b0d9"><path d="M 10 14 L 30.257812 14 L 30.257812 32.328125 L 10 32.328125 Z M 10 14 " clip-rule="nonzero"/></clipPath><clipPath id="921f9a98c7"><path d="M 29 12 L 30.257812 12 L 30.257812 14 L 29 14 Z M 29 12 " clip-rule="nonzero"/></clipPath></defs><g clip-path="url(#2d5ae561c7)"><path fill="#2ca3a9" d="M 22.367188 14.1875 L 7.421875 14.1875 C 7.308594 14.1875 7.210938 14.148438 7.128906 14.066406 C 7.046875 13.980469 7.007812 13.882812 7.007812 13.765625 L 7.007812 7.015625 C 7.007812 6.898438 7.046875 6.800781 7.128906 6.71875 C 7.210938 6.636719 7.308594 6.59375 7.421875 6.59375 L 22.367188 6.59375 C 22.480469 6.59375 22.578125 6.636719 22.660156 6.71875 C 22.742188 6.800781 22.78125 6.898438 22.78125 7.015625 L 22.78125 13.765625 C 22.78125 13.882812 22.742188 13.980469 22.660156 14.066406 C 22.578125 14.148438 22.480469 14.1875 22.367188 14.1875 Z M 7.839844 13.34375 L 21.953125 13.34375 L 21.953125 7.4375 L 7.839844 7.4375 Z M 7.839844 13.34375 " fill-opacity="1" fill-rule="nonzero"/></g><g clip-path="url(#edc80d87d7)"><path fill="#2ca3a9" d="M 29.839844 11.234375 L 24.859375 11.234375 C 24.742188 11.234375 24.644531 11.195312 24.566406 11.113281 C 24.484375 11.027344 24.441406 10.929688 24.441406 10.8125 L 24.441406 5.75 L 25.273438 5.75 L 25.273438 10.390625 L 29.839844 10.390625 Z M 29.839844 11.234375 " fill-opacity="1" fill-rule="nonzero"/></g><g clip-path="url(#e32f28ef1b)"><path fill="#2ca3a9" d="M 30.253906 12.078125 L 29.425781 12.078125 L 29.425781 10.988281 L 24.6875 6.171875 L 11.160156 6.171875 L 11.160156 7.015625 L 10.328125 7.015625 L 10.328125 5.75 C 10.328125 5.632812 10.371094 5.535156 10.449219 5.453125 C 10.53125 5.371094 10.628906 5.328125 10.742188 5.328125 L 24.859375 5.328125 C 24.972656 5.328125 25.070312 5.371094 25.152344 5.453125 L 30.132812 10.515625 C 30.214844 10.597656 30.253906 10.695312 30.253906 10.8125 Z M 30.253906 12.078125 " fill-opacity="1" fill-rule="nonzero"/></g><path fill="#2ca3a9" d="M 10.328125 15.03125 L 11.160156 15.03125 L 11.160156 15.875 L 10.328125 15.875 Z M 10.328125 15.03125 " fill-opacity="1" fill-rule="nonzero"/><path fill="#2ca3a9" d="M 10.328125 16.71875 L 11.160156 16.71875 L 11.160156 28.953125 L 10.328125 28.953125 Z M 10.328125 16.71875 " fill-opacity="1" fill-rule="nonzero"/><g clip-path="url(#fa39c6b0d9)"><path fill="#2ca3a9" d="M 29.839844 32.328125 L 10.742188 32.328125 C 10.628906 32.328125 10.53125 32.289062 10.449219 32.207031 C 10.371094 32.121094 10.328125 32.023438 10.328125 31.90625 L 10.328125 29.796875 L 11.160156 29.796875 L 11.160156 31.484375 L 29.425781 31.484375 L 29.425781 14.609375 L 30.253906 14.609375 L 30.253906 31.90625 C 30.253906 32.023438 30.214844 32.121094 30.132812 32.207031 C 30.050781 32.289062 29.953125 32.328125 29.839844 32.328125 Z M 29.839844 32.328125 " fill-opacity="1" fill-rule="nonzero"/></g><g clip-path="url(#921f9a98c7)"><path fill="#2ca3a9" d="M 29.425781 12.921875 L 30.253906 12.921875 L 30.253906 13.765625 L 29.425781 13.765625 Z M 29.425781 12.921875 " fill-opacity="1" fill-rule="nonzero"/></g><path fill="#2ca3a9" d="M 21.121094 12.5 L 19.460938 12.5 C 19.347656 12.5 19.25 12.460938 19.167969 12.378906 C 19.085938 12.292969 19.046875 12.195312 19.046875 12.078125 L 19.046875 8.28125 L 19.875 8.28125 L 19.875 11.65625 L 21.121094 11.65625 Z M 21.121094 12.5 " fill-opacity="1" fill-rule="nonzero"/><path fill="#2ca3a9" d="M 8.667969 8.28125 L 9.5 8.28125 L 9.5 12.5 L 8.667969 12.5 Z M 8.667969 8.28125 " fill-opacity="1" fill-rule="nonzero"/><path fill="#2ca3a9" d="M 10.742188 8.28125 L 11.574219 8.28125 L 11.574219 12.5 L 10.742188 12.5 Z M 10.742188 8.28125 " fill-opacity="1" fill-rule="nonzero"/><path fill="#2ca3a9" d="M 9.082031 9.96875 L 11.160156 9.96875 L 11.160156 10.8125 L 9.082031 10.8125 Z M 9.082031 9.96875 " fill-opacity="1" fill-rule="nonzero"/><path fill="#2ca3a9" d="M 11.988281 8.28125 L 14.480469 8.28125 L 14.480469 9.125 L 11.988281 9.125 Z M 11.988281 8.28125 " fill-opacity="1" fill-rule="nonzero"/><path fill="#2ca3a9" d="M 12.820312 8.703125 L 13.648438 8.703125 L 13.648438 12.5 L 12.820312 12.5 Z M 12.820312 8.703125 " fill-opacity="1" fill-rule="nonzero"/><path fill="#2ca3a9" d="M 18.214844 12.5 L 17.386719 12.5 L 17.386719 10.757812 L 16.9375 11.824219 C 16.867188 11.992188 16.738281 12.078125 16.554688 12.078125 C 16.375 12.078125 16.246094 11.992188 16.175781 11.824219 L 15.726562 10.757812 L 15.726562 12.5 L 14.894531 12.5 L 14.894531 8.703125 C 14.894531 8.472656 15.007812 8.335938 15.226562 8.289062 C 15.449219 8.246094 15.601562 8.328125 15.691406 8.539062 L 16.554688 10.585938 L 17.417969 8.539062 C 17.507812 8.328125 17.664062 8.246094 17.882812 8.289062 C 18.105469 8.335938 18.214844 8.472656 18.214844 8.703125 Z M 18.214844 12.5 " fill-opacity="1" fill-rule="nonzero"/><path fill="#2ca3a9" d="M 17.386719 26.84375 L 15.726562 26.84375 C 15.601562 26.84375 15.496094 26.796875 15.414062 26.703125 L 12.09375 22.90625 C 12.023438 22.824219 11.988281 22.734375 11.988281 22.625 C 11.988281 22.519531 12.023438 22.425781 12.09375 22.34375 L 15.414062 18.546875 C 15.496094 18.453125 15.601562 18.40625 15.726562 18.40625 L 17.386719 18.40625 C 17.566406 18.40625 17.691406 18.488281 17.765625 18.65625 C 17.839844 18.824219 17.816406 18.972656 17.695312 19.109375 L 14.621094 22.625 L 17.695312 26.140625 C 17.816406 26.277344 17.835938 26.429688 17.765625 26.59375 C 17.691406 26.761719 17.566406 26.84375 17.386719 26.84375 Z M 15.910156 26 L 16.460938 26 L 13.753906 22.90625 C 13.683594 22.824219 13.648438 22.734375 13.648438 22.625 C 13.648438 22.519531 13.683594 22.425781 13.753906 22.34375 L 16.460938 19.25 L 15.910156 19.25 L 12.960938 22.625 Z M 15.910156 26 " fill-opacity="1" fill-rule="nonzero"/><path fill="#2ca3a9" d="M 24.859375 26.84375 L 23.199219 26.84375 C 23.019531 26.84375 22.894531 26.761719 22.820312 26.59375 C 22.746094 26.429688 22.769531 26.277344 22.886719 26.140625 L 25.964844 22.625 L 22.886719 19.109375 C 22.769531 18.972656 22.746094 18.824219 22.820312 18.65625 C 22.890625 18.488281 23.019531 18.40625 23.199219 18.40625 L 24.859375 18.40625 C 24.984375 18.40625 25.085938 18.453125 25.167969 18.546875 L 28.488281 22.34375 C 28.558594 22.425781 28.59375 22.519531 28.59375 22.625 C 28.59375 22.730469 28.558594 22.824219 28.488281 22.90625 L 25.167969 26.703125 C 25.085938 26.796875 24.984375 26.84375 24.859375 26.84375 Z M 24.121094 26 L 24.671875 26 L 27.625 22.625 L 24.671875 19.25 L 24.121094 19.25 L 26.828125 22.34375 C 26.898438 22.425781 26.933594 22.519531 26.933594 22.625 C 26.933594 22.734375 26.898438 22.824219 26.828125 22.90625 Z M 24.121094 26 " fill-opacity="1" fill-rule="nonzero"/><path fill="#2ca3a9" d="M 19.875 26.84375 L 18.632812 26.84375 C 18.492188 26.84375 18.382812 26.789062 18.300781 26.679688 C 18.21875 26.566406 18.195312 26.445312 18.230469 26.308594 L 20.308594 18.714844 C 20.363281 18.507812 20.496094 18.40625 20.707031 18.40625 L 21.953125 18.40625 C 22.089844 18.40625 22.199219 18.460938 22.28125 18.574219 C 22.367188 18.683594 22.390625 18.808594 22.351562 18.941406 L 20.277344 26.535156 C 20.21875 26.742188 20.085938 26.84375 19.875 26.84375 Z M 19.175781 26 L 19.5625 26 L 21.40625 19.25 L 21.023438 19.25 Z M 19.175781 26 " fill-opacity="1" fill-rule="nonzero"/></svg>