<svg xmlns="http://www.w3.org/2000/svg" xmlns:xlink="http://www.w3.org/1999/xlink" width="50" zoomAndPan="magnify" viewBox="0 0 37.5 37.499999" height="50" preserveAspectRatio="xMidYMid meet" version="1.0"><defs><clipPath id="454f1d2d4b"><path d="M 7.054688 6 L 23 6 L 23 15 L 7.054688 15 Z M 7.054688 6 " clip-rule="nonzero"/></clipPath><clipPath id="3bb0ccbcb1"><path d="M 24 5.382812 L 30 5.382812 L 30 12 L 24 12 Z M 24 5.382812 " clip-rule="nonzero"/></clipPath><clipPath id="5182170f92"><path d="M 10 5.382812 L 30.304688 5.382812 L 30.304688 13 L 10 13 Z M 10 5.382812 " clip-rule="nonzero"/></clipPath><clipPath id="9b682b6d93"><path d="M 10 14 L 30.304688 14 L 30.304688 32.382812 L 10 32.382812 Z M 10 14 " clip-rule="nonzero"/></clipPath><clipPath id="0cb900ed80"><path d="M 29 12 L 30.304688 12 L 30.304688 14 L 29 14 Z M 29 12 " clip-rule="nonzero"/></clipPath></defs><g clip-path="url(#454f1d2d4b)"><path fill="#1b0739" d="M 22.414062 14.242188 L 7.46875 14.242188 C 7.355469 14.242188 7.257812 14.199219 7.175781 14.117188 C 7.09375 14.035156 7.054688 13.9375 7.054688 13.820312 L 7.054688 7.070312 C 7.054688 6.953125 7.09375 6.855469 7.175781 6.769531 C 7.257812 6.6875 7.355469 6.648438 7.46875 6.648438 L 22.414062 6.648438 C 22.527344 6.648438 22.625 6.6875 22.707031 6.769531 C 22.789062 6.855469 22.828125 6.953125 22.828125 7.070312 L 22.828125 13.820312 C 22.828125 13.9375 22.789062 14.035156 22.707031 14.117188 C 22.625 14.199219 22.527344 14.242188 22.414062 14.242188 Z M 7.882812 13.398438 L 22 13.398438 L 22 7.492188 L 7.882812 7.492188 Z M 7.882812 13.398438 " fill-opacity="1" fill-rule="nonzero"/></g><g clip-path="url(#3bb0ccbcb1)"><path fill="#1b0739" d="M 29.886719 11.289062 L 24.90625 11.289062 C 24.789062 11.289062 24.691406 11.246094 24.613281 11.164062 C 24.53125 11.082031 24.488281 10.984375 24.488281 10.867188 L 24.488281 5.804688 L 25.320312 5.804688 L 25.320312 10.445312 L 29.886719 10.445312 Z M 29.886719 11.289062 " fill-opacity="1" fill-rule="nonzero"/></g><g clip-path="url(#5182170f92)"><path fill="#1b0739" d="M 30.300781 12.132812 L 29.472656 12.132812 L 29.472656 11.042969 L 24.734375 6.226562 L 11.207031 6.226562 L 11.207031 7.070312 L 10.375 7.070312 L 10.375 5.804688 C 10.375 5.6875 10.414062 5.589844 10.496094 5.503906 C 10.578125 5.421875 10.675781 5.382812 10.789062 5.382812 L 24.90625 5.382812 C 25.019531 5.382812 25.117188 5.421875 25.199219 5.503906 L 30.179688 10.566406 C 30.261719 10.652344 30.300781 10.75 30.300781 10.867188 Z M 30.300781 12.132812 " fill-opacity="1" fill-rule="nonzero"/></g><path fill="#1b0739" d="M 10.375 15.085938 L 11.207031 15.085938 L 11.207031 15.929688 L 10.375 15.929688 Z M 10.375 15.085938 " fill-opacity="1" fill-rule="nonzero"/><path fill="#1b0739" d="M 10.375 16.773438 L 11.207031 16.773438 L 11.207031 29.007812 L 10.375 29.007812 Z M 10.375 16.773438 " fill-opacity="1" fill-rule="nonzero"/><g clip-path="url(#9b682b6d93)"><path fill="#1b0739" d="M 29.886719 32.382812 L 10.789062 32.382812 C 10.675781 32.382812 10.578125 32.339844 10.496094 32.257812 C 10.414062 32.175781 10.375 32.078125 10.375 31.960938 L 10.375 29.851562 L 11.207031 29.851562 L 11.207031 31.539062 L 29.472656 31.539062 L 29.472656 14.664062 L 30.300781 14.664062 L 30.300781 31.960938 C 30.300781 32.078125 30.261719 32.175781 30.179688 32.257812 C 30.101562 32.339844 30 32.382812 29.886719 32.382812 Z M 29.886719 32.382812 " fill-opacity="1" fill-rule="nonzero"/></g><g clip-path="url(#0cb900ed80)"><path fill="#1b0739" d="M 29.472656 12.976562 L 30.300781 12.976562 L 30.300781 13.820312 L 29.472656 13.820312 Z M 29.472656 12.976562 " fill-opacity="1" fill-rule="nonzero"/></g><path fill="#1b0739" d="M 16.1875 12.554688 C 14.875 12.554688 14.527344 11.726562 14.527344 11.289062 L 14.941406 11.289062 L 15.355469 11.277344 C 15.363281 11.347656 15.421875 11.710938 16.1875 11.710938 C 16.300781 11.710938 16.398438 11.667969 16.480469 11.585938 C 16.5625 11.503906 16.601562 11.40625 16.601562 11.289062 C 16.601562 11.171875 16.5625 11.074219 16.480469 10.988281 C 16.398438 10.90625 16.300781 10.867188 16.1875 10.867188 L 15.773438 10.867188 C 15.605469 10.867188 15.449219 10.835938 15.296875 10.769531 C 15.144531 10.707031 15.007812 10.613281 14.890625 10.496094 C 14.773438 10.378906 14.683594 10.242188 14.621094 10.085938 C 14.558594 9.929688 14.527344 9.769531 14.527344 9.601562 C 14.527344 9.433594 14.558594 9.273438 14.621094 9.117188 C 14.683594 8.960938 14.773438 8.824219 14.890625 8.707031 C 15.007812 8.585938 15.144531 8.496094 15.296875 8.429688 C 15.449219 8.367188 15.605469 8.335938 15.773438 8.335938 C 17.085938 8.335938 17.433594 9.164062 17.433594 9.601562 L 16.601562 9.601562 C 16.597656 9.539062 16.535156 9.179688 15.773438 9.179688 C 15.65625 9.179688 15.558594 9.21875 15.476562 9.300781 C 15.398438 9.386719 15.355469 9.484375 15.355469 9.601562 C 15.355469 9.71875 15.398438 9.816406 15.476562 9.898438 C 15.558594 9.980469 15.65625 10.023438 15.773438 10.023438 L 16.1875 10.023438 C 16.351562 10.023438 16.511719 10.054688 16.664062 10.117188 C 16.816406 10.183594 16.949219 10.273438 17.066406 10.394531 C 17.183594 10.511719 17.273438 10.648438 17.335938 10.804688 C 17.402344 10.960938 17.433594 11.121094 17.433594 11.289062 C 17.433594 11.457031 17.402344 11.617188 17.335938 11.773438 C 17.273438 11.929688 17.183594 12.066406 17.066406 12.183594 C 16.949219 12.300781 16.816406 12.394531 16.664062 12.457031 C 16.511719 12.523438 16.351562 12.554688 16.1875 12.554688 Z M 16.1875 12.554688 " fill-opacity="1" fill-rule="nonzero"/><path fill="#1b0739" d="M 12.867188 12.554688 C 12.699219 12.554688 12.542969 12.523438 12.390625 12.457031 C 12.238281 12.394531 12.101562 12.300781 11.984375 12.183594 C 11.867188 12.066406 11.777344 11.929688 11.714844 11.773438 C 11.652344 11.617188 11.621094 11.457031 11.621094 11.289062 L 11.621094 10.867188 L 12.449219 10.867188 L 12.449219 11.289062 C 12.449219 11.40625 12.492188 11.503906 12.574219 11.585938 C 12.652344 11.667969 12.75 11.710938 12.867188 11.710938 C 12.980469 11.710938 13.078125 11.667969 13.160156 11.585938 C 13.242188 11.503906 13.28125 11.40625 13.28125 11.289062 L 13.28125 8.335938 L 14.113281 8.335938 L 14.113281 11.289062 C 14.113281 11.457031 14.078125 11.617188 14.015625 11.773438 C 13.953125 11.929688 13.863281 12.066406 13.746094 12.183594 C 13.628906 12.300781 13.496094 12.394531 13.34375 12.457031 C 13.191406 12.523438 13.03125 12.554688 12.867188 12.554688 Z M 12.867188 12.554688 " fill-opacity="1" fill-rule="nonzero"/><path fill="#1b0739" d="M 17.433594 27.320312 L 17.015625 27.320312 C 16.742188 27.320312 16.476562 27.265625 16.222656 27.160156 C 15.96875 27.050781 15.746094 26.898438 15.550781 26.699219 C 15.355469 26.503906 15.207031 26.273438 15.101562 26.015625 C 14.996094 25.757812 14.941406 25.488281 14.941406 25.210938 L 14.941406 23.945312 C 14.925781 23.890625 14.835938 23.835938 14.773438 23.800781 C 14.574219 23.691406 14.394531 23.558594 14.230469 23.398438 C 14.152344 23.316406 14.109375 23.21875 14.109375 23.101562 C 14.109375 22.984375 14.152344 22.886719 14.230469 22.800781 C 14.394531 22.644531 14.574219 22.511719 14.773438 22.402344 C 14.832031 22.371094 14.886719 22.332031 14.941406 22.289062 L 14.941406 20.992188 C 14.941406 20.710938 14.996094 20.441406 15.101562 20.183594 C 15.207031 19.925781 15.355469 19.699219 15.550781 19.5 C 15.746094 19.304688 15.96875 19.152344 16.222656 19.042969 C 16.476562 18.9375 16.742188 18.882812 17.015625 18.882812 L 17.433594 18.882812 L 17.433594 19.726562 L 17.015625 19.726562 C 16.851562 19.726562 16.695312 19.757812 16.539062 19.820312 C 16.386719 19.886719 16.253906 19.976562 16.136719 20.097656 C 16.019531 20.214844 15.929688 20.351562 15.867188 20.507812 C 15.804688 20.664062 15.773438 20.824219 15.773438 20.992188 L 15.773438 22.257812 C 15.773438 22.65625 15.597656 22.9375 15.238281 23.101562 C 15.597656 23.265625 15.773438 23.546875 15.773438 23.945312 L 15.773438 25.210938 C 15.773438 25.378906 15.804688 25.539062 15.867188 25.695312 C 15.929688 25.851562 16.019531 25.988281 16.136719 26.105469 C 16.253906 26.222656 16.386719 26.316406 16.539062 26.378906 C 16.695312 26.445312 16.851562 26.476562 17.015625 26.476562 L 17.433594 26.476562 Z M 17.433594 27.320312 " fill-opacity="1" fill-rule="nonzero"/><path fill="#1b0739" d="M 23.660156 27.320312 L 23.246094 27.320312 L 23.246094 26.476562 L 23.660156 26.476562 C 23.824219 26.476562 23.984375 26.445312 24.136719 26.378906 C 24.289062 26.316406 24.421875 26.222656 24.539062 26.105469 C 24.65625 25.988281 24.746094 25.851562 24.8125 25.695312 C 24.875 25.539062 24.90625 25.378906 24.90625 25.210938 L 24.90625 23.945312 C 24.902344 23.546875 25.082031 23.265625 25.4375 23.101562 C 25.082031 22.9375 24.902344 22.65625 24.90625 22.257812 L 24.90625 20.992188 C 24.90625 20.824219 24.875 20.664062 24.8125 20.507812 C 24.746094 20.351562 24.65625 20.214844 24.539062 20.097656 C 24.421875 19.976562 24.289062 19.886719 24.136719 19.820312 C 23.984375 19.757812 23.824219 19.726562 23.660156 19.726562 L 23.246094 19.726562 L 23.246094 18.882812 L 23.660156 18.882812 C 23.933594 18.882812 24.199219 18.9375 24.453125 19.042969 C 24.707031 19.152344 24.933594 19.304688 25.128906 19.5 C 25.320312 19.699219 25.472656 19.925781 25.578125 20.183594 C 25.683594 20.441406 25.734375 20.710938 25.734375 20.992188 L 25.734375 22.257812 C 25.753906 22.3125 25.84375 22.363281 25.90625 22.402344 C 26.105469 22.511719 26.285156 22.644531 26.445312 22.800781 C 26.527344 22.886719 26.566406 22.984375 26.566406 23.101562 C 26.566406 23.21875 26.527344 23.316406 26.445312 23.398438 C 26.285156 23.558594 26.105469 23.691406 25.90625 23.800781 C 25.84375 23.832031 25.789062 23.871094 25.734375 23.914062 L 25.734375 25.210938 C 25.734375 25.488281 25.683594 25.757812 25.578125 26.015625 C 25.472656 26.273438 25.320312 26.503906 25.128906 26.699219 C 24.933594 26.898438 24.707031 27.050781 24.453125 27.160156 C 24.199219 27.265625 23.933594 27.320312 23.660156 27.320312 Z M 23.660156 27.320312 " fill-opacity="1" fill-rule="nonzero"/><path fill="#1b0739" d="M 20.339844 21.835938 C 20.109375 21.835938 19.914062 21.753906 19.75 21.589844 C 19.589844 21.421875 19.507812 21.222656 19.507812 20.992188 C 19.507812 20.757812 19.589844 20.558594 19.75 20.394531 C 19.914062 20.230469 20.109375 20.148438 20.339844 20.148438 C 20.566406 20.148438 20.765625 20.230469 20.925781 20.394531 C 21.089844 20.558594 21.167969 20.757812 21.167969 20.992188 C 21.167969 21.222656 21.089844 21.421875 20.925781 21.589844 C 20.765625 21.753906 20.566406 21.835938 20.339844 21.835938 Z M 20.339844 20.992188 Z M 20.339844 20.992188 " fill-opacity="1" fill-rule="nonzero"/><path fill="#1b0739" d="M 19.507812 26.054688 L 18.679688 26.054688 C 18.539062 26.054688 18.429688 26 18.347656 25.886719 C 18.261719 25.773438 18.242188 25.652344 18.277344 25.515625 L 19.109375 22.5625 C 19.167969 22.359375 19.300781 22.257812 19.507812 22.257812 L 20.753906 22.257812 C 20.824219 22.257812 20.890625 22.273438 20.949219 22.308594 C 21.011719 22.339844 21.0625 22.386719 21.101562 22.445312 C 21.140625 22.507812 21.160156 22.570312 21.167969 22.640625 C 21.171875 22.710938 21.164062 22.78125 21.136719 22.84375 L 19.890625 25.796875 C 19.816406 25.96875 19.691406 26.054688 19.507812 26.054688 Z M 19.230469 25.210938 L 19.234375 25.210938 L 20.125 23.101562 L 19.820312 23.101562 Z M 19.230469 25.210938 " fill-opacity="1" fill-rule="nonzero"/></svg>