<svg xmlns="http://www.w3.org/2000/svg" xmlns:xlink="http://www.w3.org/1999/xlink" width="50" zoomAndPan="magnify" viewBox="0 0 37.5 37.499999" height="50" preserveAspectRatio="xMidYMid meet" version="1.0"><defs><clipPath id="c59d73fd5e"><path d="M 7.191406 6 L 23 6 L 23 15 L 7.191406 15 Z M 7.191406 6 " clip-rule="nonzero"/></clipPath><clipPath id="7fd836f6f2"><path d="M 24 5.542969 L 30.441406 5.542969 L 30.441406 12 L 24 12 Z M 24 5.542969 " clip-rule="nonzero"/></clipPath><clipPath id="baa4e1af3b"><path d="M 10 5.542969 L 30.441406 5.542969 L 30.441406 13 L 10 13 Z M 10 5.542969 " clip-rule="nonzero"/></clipPath><clipPath id="6cb46232a1"><path d="M 10 14 L 30.441406 14 L 30.441406 31.792969 L 10 31.792969 Z M 10 14 " clip-rule="nonzero"/></clipPath><clipPath id="2afa0b8322"><path d="M 29 12 L 30.441406 12 L 30.441406 14 L 29 14 Z M 29 12 " clip-rule="nonzero"/></clipPath></defs><g clip-path="url(#c59d73fd5e)"><path fill="#2ca3a9" d="M 22.554688 14.15625 L 7.609375 14.15625 C 7.492188 14.15625 7.394531 14.117188 7.316406 14.035156 C 7.234375 13.957031 7.191406 13.859375 7.191406 13.746094 L 7.191406 7.183594 C 7.191406 7.070312 7.234375 6.972656 7.316406 6.894531 C 7.394531 6.8125 7.492188 6.773438 7.609375 6.773438 L 22.554688 6.773438 C 22.667969 6.773438 22.765625 6.8125 22.847656 6.894531 C 22.929688 6.972656 22.96875 7.070312 22.96875 7.183594 L 22.96875 13.746094 C 22.96875 13.859375 22.929688 13.957031 22.847656 14.035156 C 22.765625 14.117188 22.667969 14.15625 22.554688 14.15625 Z M 8.023438 13.335938 L 22.140625 13.335938 L 22.140625 7.59375 L 8.023438 7.59375 Z M 8.023438 13.335938 " fill-opacity="1" fill-rule="nonzero"/></g><g clip-path="url(#7fd836f6f2)"><path fill="#2ca3a9" d="M 30.027344 11.285156 L 25.046875 11.285156 C 24.929688 11.285156 24.832031 11.246094 24.753906 11.164062 C 24.671875 11.085938 24.628906 10.988281 24.628906 10.875 L 24.628906 5.953125 L 25.460938 5.953125 L 25.460938 10.464844 L 30.027344 10.464844 Z M 30.027344 11.285156 " fill-opacity="1" fill-rule="nonzero"/></g><g clip-path="url(#baa4e1af3b)"><path fill="#2ca3a9" d="M 30.441406 12.105469 L 29.613281 12.105469 L 29.613281 11.042969 L 24.875 6.363281 L 11.34375 6.363281 L 11.34375 7.183594 L 10.515625 7.183594 L 10.515625 5.953125 C 10.515625 5.839844 10.554688 5.742188 10.636719 5.664062 C 10.71875 5.582031 10.816406 5.542969 10.929688 5.542969 L 25.046875 5.542969 C 25.160156 5.542969 25.257812 5.582031 25.339844 5.664062 L 30.320312 10.585938 C 30.402344 10.664062 30.441406 10.761719 30.441406 10.875 Z M 30.441406 12.105469 " fill-opacity="1" fill-rule="nonzero"/></g><path fill="#2ca3a9" d="M 10.515625 14.976562 L 11.34375 14.976562 L 11.34375 15.796875 L 10.515625 15.796875 Z M 10.515625 14.976562 " fill-opacity="1" fill-rule="nonzero"/><path fill="#2ca3a9" d="M 10.515625 16.617188 L 11.34375 16.617188 L 11.34375 28.507812 L 10.515625 28.507812 Z M 10.515625 16.617188 " fill-opacity="1" fill-rule="nonzero"/><g clip-path="url(#6cb46232a1)"><path fill="#2ca3a9" d="M 30.027344 31.789062 L 10.929688 31.789062 C 10.816406 31.789062 10.71875 31.75 10.636719 31.671875 C 10.554688 31.589844 10.515625 31.492188 10.515625 31.378906 L 10.515625 29.328125 L 11.34375 29.328125 L 11.34375 30.96875 L 29.613281 30.96875 L 29.613281 14.566406 L 30.441406 14.566406 L 30.441406 31.378906 C 30.441406 31.492188 30.402344 31.589844 30.320312 31.671875 C 30.242188 31.75 30.140625 31.789062 30.027344 31.789062 Z M 30.027344 31.789062 " fill-opacity="1" fill-rule="nonzero"/></g><g clip-path="url(#2afa0b8322)"><path fill="#2ca3a9" d="M 29.613281 12.925781 L 30.441406 12.925781 L 30.441406 13.746094 L 29.613281 13.746094 Z M 29.613281 12.925781 " fill-opacity="1" fill-rule="nonzero"/></g><path fill="#2ca3a9" d="M 16.328125 12.515625 C 15.011719 12.515625 14.667969 11.710938 14.667969 11.285156 L 15.082031 11.285156 L 15.496094 11.273438 C 15.5 11.34375 15.5625 11.695312 16.328125 11.695312 C 16.441406 11.695312 16.539062 11.65625 16.621094 11.574219 C 16.703125 11.496094 16.742188 11.398438 16.742188 11.285156 C 16.742188 11.171875 16.703125 11.074219 16.621094 10.996094 C 16.539062 10.914062 16.441406 10.875 16.328125 10.875 L 15.910156 10.875 C 15.746094 10.875 15.585938 10.84375 15.433594 10.78125 C 15.28125 10.71875 15.148438 10.628906 15.03125 10.515625 C 14.914062 10.398438 14.824219 10.265625 14.761719 10.117188 C 14.699219 9.964844 14.667969 9.808594 14.667969 9.644531 C 14.667969 9.480469 14.699219 9.324219 14.761719 9.175781 C 14.824219 9.023438 14.914062 8.890625 15.03125 8.773438 C 15.148438 8.660156 15.28125 8.570312 15.433594 8.507812 C 15.585938 8.445312 15.746094 8.414062 15.910156 8.414062 C 17.226562 8.414062 17.574219 9.21875 17.574219 9.644531 L 16.742188 9.644531 C 16.738281 9.585938 16.675781 9.234375 15.910156 9.234375 C 15.796875 9.234375 15.699219 9.273438 15.617188 9.355469 C 15.535156 9.433594 15.496094 9.53125 15.496094 9.644531 C 15.496094 9.757812 15.535156 9.855469 15.617188 9.933594 C 15.699219 10.015625 15.796875 10.054688 15.910156 10.054688 L 16.328125 10.054688 C 16.492188 10.054688 16.652344 10.085938 16.804688 10.148438 C 16.957031 10.210938 17.089844 10.300781 17.207031 10.414062 C 17.324219 10.53125 17.414062 10.664062 17.476562 10.8125 C 17.539062 10.964844 17.574219 11.121094 17.574219 11.285156 C 17.574219 11.449219 17.539062 11.605469 17.476562 11.757812 C 17.414062 11.90625 17.324219 12.039062 17.207031 12.15625 C 17.089844 12.269531 16.957031 12.359375 16.804688 12.421875 C 16.652344 12.484375 16.492188 12.515625 16.328125 12.515625 Z M 16.328125 12.515625 " fill-opacity="1" fill-rule="nonzero"/><path fill="#2ca3a9" d="M 13.003906 12.515625 C 12.839844 12.515625 12.679688 12.484375 12.527344 12.421875 C 12.375 12.359375 12.242188 12.269531 12.125 12.15625 C 12.007812 12.039062 11.917969 11.90625 11.855469 11.757812 C 11.792969 11.605469 11.761719 11.449219 11.761719 11.285156 L 11.761719 10.875 L 12.589844 10.875 L 12.589844 11.285156 C 12.589844 11.398438 12.628906 11.496094 12.710938 11.574219 C 12.792969 11.65625 12.890625 11.695312 13.003906 11.695312 C 13.121094 11.695312 13.21875 11.65625 13.300781 11.574219 C 13.378906 11.496094 13.421875 11.398438 13.421875 11.285156 L 13.421875 8.414062 L 14.25 8.414062 L 14.25 11.285156 C 14.25 11.449219 14.21875 11.605469 14.15625 11.757812 C 14.09375 11.90625 14.003906 12.039062 13.886719 12.15625 C 13.769531 12.269531 13.632812 12.359375 13.480469 12.421875 C 13.328125 12.484375 13.171875 12.515625 13.003906 12.515625 Z M 13.003906 12.515625 " fill-opacity="1" fill-rule="nonzero"/><path fill="#2ca3a9" d="M 17.574219 26.867188 L 17.15625 26.867188 C 16.882812 26.867188 16.617188 26.816406 16.363281 26.710938 C 16.109375 26.609375 15.882812 26.460938 15.691406 26.269531 C 15.496094 26.074219 15.34375 25.855469 15.238281 25.601562 C 15.132812 25.351562 15.082031 25.089844 15.082031 24.820312 L 15.082031 23.589844 C 15.0625 23.535156 14.976562 23.484375 14.910156 23.449219 C 14.714844 23.34375 14.53125 23.210938 14.371094 23.058594 C 14.289062 22.976562 14.25 22.882812 14.25 22.769531 C 14.25 22.65625 14.289062 22.558594 14.371094 22.476562 C 14.53125 22.324219 14.714844 22.195312 14.910156 22.089844 C 14.972656 22.058594 15.027344 22.019531 15.082031 21.976562 L 15.082031 20.71875 C 15.082031 20.445312 15.132812 20.183594 15.238281 19.933594 C 15.34375 19.683594 15.496094 19.460938 15.691406 19.269531 C 15.882812 19.074219 16.109375 18.929688 16.363281 18.824219 C 16.617188 18.71875 16.882812 18.667969 17.15625 18.667969 L 17.574219 18.667969 L 17.574219 19.488281 L 17.15625 19.488281 C 16.992188 19.488281 16.832031 19.519531 16.679688 19.582031 C 16.527344 19.644531 16.394531 19.730469 16.277344 19.847656 C 16.160156 19.964844 16.070312 20.097656 16.007812 20.246094 C 15.941406 20.398438 15.910156 20.554688 15.910156 20.71875 L 15.910156 21.949219 C 15.914062 22.335938 15.734375 22.609375 15.378906 22.769531 C 15.734375 22.929688 15.914062 23.203125 15.910156 23.589844 L 15.910156 24.820312 C 15.910156 24.980469 15.941406 25.136719 16.007812 25.289062 C 16.070312 25.441406 16.160156 25.574219 16.277344 25.6875 C 16.394531 25.804688 16.527344 25.894531 16.679688 25.957031 C 16.832031 26.019531 16.992188 26.050781 17.15625 26.050781 L 17.574219 26.050781 Z M 17.574219 26.867188 " fill-opacity="1" fill-rule="nonzero"/><path fill="#2ca3a9" d="M 23.800781 26.867188 L 23.386719 26.867188 L 23.386719 26.050781 L 23.800781 26.050781 C 23.964844 26.050781 24.125 26.019531 24.277344 25.957031 C 24.429688 25.894531 24.5625 25.804688 24.679688 25.6875 C 24.796875 25.574219 24.886719 25.441406 24.949219 25.289062 C 25.015625 25.136719 25.046875 24.980469 25.046875 24.820312 L 25.046875 23.589844 C 25.042969 23.203125 25.222656 22.929688 25.578125 22.769531 C 25.222656 22.609375 25.042969 22.335938 25.046875 21.949219 L 25.046875 20.71875 C 25.046875 20.554688 25.015625 20.398438 24.949219 20.246094 C 24.886719 20.097656 24.796875 19.964844 24.679688 19.847656 C 24.5625 19.730469 24.429688 19.644531 24.277344 19.582031 C 24.125 19.519531 23.964844 19.488281 23.800781 19.488281 L 23.386719 19.488281 L 23.386719 18.667969 L 23.800781 18.667969 C 24.074219 18.667969 24.339844 18.71875 24.59375 18.824219 C 24.847656 18.929688 25.074219 19.074219 25.265625 19.269531 C 25.460938 19.460938 25.613281 19.683594 25.71875 19.933594 C 25.824219 20.183594 25.875 20.445312 25.875 20.71875 L 25.875 21.949219 C 25.894531 22 25.980469 22.050781 26.046875 22.089844 C 26.246094 22.195312 26.425781 22.324219 26.585938 22.476562 C 26.667969 22.558594 26.707031 22.65625 26.707031 22.769531 C 26.707031 22.882812 26.667969 22.976562 26.585938 23.058594 C 26.425781 23.210938 26.246094 23.34375 26.046875 23.449219 C 25.984375 23.480469 25.929688 23.515625 25.875 23.558594 L 25.875 24.820312 C 25.875 25.089844 25.824219 25.351562 25.71875 25.601562 C 25.613281 25.855469 25.460938 26.074219 25.265625 26.269531 C 25.074219 26.460938 24.847656 26.609375 24.59375 26.710938 C 24.339844 26.816406 24.074219 26.867188 23.800781 26.867188 Z M 23.800781 26.867188 " fill-opacity="1" fill-rule="nonzero"/><path fill="#2ca3a9" d="M 20.480469 21.539062 C 20.25 21.539062 20.054688 21.457031 19.890625 21.296875 C 19.730469 21.136719 19.648438 20.945312 19.648438 20.71875 C 19.648438 20.492188 19.730469 20.296875 19.890625 20.136719 C 20.054688 19.976562 20.25 19.898438 20.480469 19.898438 C 20.707031 19.898438 20.902344 19.976562 21.066406 20.136719 C 21.226562 20.296875 21.308594 20.492188 21.308594 20.71875 C 21.308594 20.945312 21.226562 21.136719 21.066406 21.296875 C 20.902344 21.457031 20.707031 21.539062 20.480469 21.539062 Z M 20.480469 20.71875 Z M 20.480469 20.71875 " fill-opacity="1" fill-rule="nonzero"/><path fill="#2ca3a9" d="M 19.648438 25.640625 L 18.816406 25.640625 C 18.679688 25.640625 18.570312 25.585938 18.488281 25.476562 C 18.402344 25.367188 18.378906 25.246094 18.417969 25.117188 L 19.25 22.246094 C 19.304688 22.046875 19.4375 21.949219 19.648438 21.949219 L 20.894531 21.949219 C 20.964844 21.949219 21.027344 21.964844 21.089844 21.996094 C 21.152344 22.03125 21.203125 22.074219 21.242188 22.132812 C 21.277344 22.191406 21.300781 22.253906 21.308594 22.320312 C 21.3125 22.390625 21.304688 22.457031 21.277344 22.519531 L 20.03125 25.390625 C 19.957031 25.554688 19.832031 25.640625 19.648438 25.640625 Z M 19.367188 24.820312 L 19.375 24.820312 L 20.265625 22.769531 L 19.960938 22.769531 Z M 19.367188 24.820312 " fill-opacity="1" fill-rule="nonzero"/></svg>