<svg xmlns="http://www.w3.org/2000/svg" xmlns:xlink="http://www.w3.org/1999/xlink" width="500" zoomAndPan="magnify" viewBox="0 0 375 374.999991" height="500" preserveAspectRatio="xMidYMid meet" version="1.0"><defs><clipPath id="6678e94c32"><path d="M 37.5 34 L 337.5 34 L 337.5 341.152344 L 37.5 341.152344 Z M 37.5 34 " clip-rule="nonzero"/></clipPath></defs><g clip-path="url(#6678e94c32)"><path fill="#1b0739" d="M 313.238281 127.707031 C 312.523438 130.386719 310.09375 132.148438 307.449219 132.148438 C 306.933594 132.148438 306.414062 132.085938 305.898438 131.945312 L 287.050781 126.898438 C 283.847656 126.042969 281.953125 122.757812 282.8125 119.558594 C 283.660156 116.363281 286.953125 114.464844 290.148438 115.320312 L 308.996094 120.367188 C 312.199219 121.222656 314.09375 124.511719 313.238281 127.707031 Z M 269.847656 71.21875 C 267.507812 68.882812 267.507812 65.089844 269.847656 62.746094 L 283.644531 48.953125 C 285.984375 46.617188 289.785156 46.617188 292.125 48.953125 C 294.46875 51.296875 294.46875 55.09375 292.125 57.433594 L 278.328125 71.21875 C 277.15625 72.394531 275.621094 72.976562 274.085938 72.976562 C 272.550781 72.976562 271.023438 72.394531 269.847656 71.21875 Z M 291.621094 85.089844 L 309.484375 80.300781 C 312.6875 79.445312 315.972656 81.347656 316.828125 84.539062 C 317.6875 87.742188 315.792969 91.023438 312.589844 91.882812 L 294.726562 96.664062 C 294.203125 96.808594 293.683594 96.875 293.167969 96.875 C 290.523438 96.875 288.097656 95.105469 287.382812 92.425781 C 286.523438 89.234375 288.417969 85.949219 291.621094 85.089844 Z M 61.570312 329.167969 C 61.558594 329.167969 61.554688 329.167969 61.542969 329.167969 L 152.714844 249.183594 L 183.894531 276.390625 C 185.023438 277.378906 186.429688 277.867188 187.835938 277.867188 C 189.234375 277.867188 190.621094 277.386719 191.75 276.421875 L 223.40625 249.152344 L 315.566406 328.964844 C 314.875 329.09375 314.160156 329.167969 313.429688 329.167969 Z M 50.871094 322.574219 L 143.597656 241.238281 L 50.859375 160.328125 C 50.046875 161.949219 49.574219 163.761719 49.574219 165.695312 L 49.574219 317.183594 C 49.574219 319.125 50.050781 320.953125 50.871094 322.574219 Z M 103.019531 153.703125 L 61.570312 153.703125 C 61.546875 153.703125 61.527344 153.703125 61.503906 153.703125 L 187.859375 263.941406 L 315.597656 153.910156 C 314.894531 153.785156 314.175781 153.707031 313.429688 153.707031 L 275.648438 153.707031 C 276.441406 162.667969 270.707031 171.195312 261.722656 173.605469 C 260.089844 174.035156 258.445312 174.246094 256.832031 174.246094 C 249.941406 174.246094 243.53125 170.4375 240.234375 164.367188 C 221.558594 156.5 196.148438 153.890625 169.414062 157 L 182.5 188.921875 C 184.773438 194.46875 182.460938 200.730469 177.128906 203.464844 L 169.214844 207.535156 C 167.558594 208.386719 165.777344 208.820312 163.980469 208.820312 C 162.648438 208.820312 161.3125 208.578125 160.011719 208.105469 C 156.964844 206.984375 154.601562 204.71875 153.359375 201.71875 L 139.003906 166.992188 C 136.230469 167.710938 133.410156 168.070312 130.609375 168.070312 C 124.773438 168.070312 119 166.53125 113.789062 163.523438 C 109.453125 161.023438 105.808594 157.675781 103.019531 153.703125 Z M 124.996094 113.480469 L 143.402344 108.554688 L 154.628906 150.410156 L 136.214844 155.335938 C 124.675781 158.429688 112.761719 151.554688 109.667969 140.019531 C 106.574219 128.484375 113.453125 116.574219 124.996094 113.480469 Z M 158.421875 161.800781 L 171.222656 193.023438 L 164.226562 196.625 L 150.691406 163.871094 Z M 213.933594 68.335938 L 235.828125 149.996094 C 215.894531 143.675781 191.554688 142.050781 165.691406 145.375 L 155.5 107.378906 C 179.570312 97.339844 199.835938 83.773438 213.933594 68.335938 Z M 223.476562 49.757812 C 224.402344 48.152344 225.886719 47.007812 227.652344 46.53125 C 228.234375 46.375 228.828125 46.300781 229.421875 46.300781 C 230.621094 46.300781 231.808594 46.617188 232.882812 47.234375 C 234.488281 48.164062 235.636719 49.644531 236.109375 51.410156 L 263.496094 153.574219 C 264.484375 157.246094 262.289062 161.035156 258.613281 162.023438 C 254.9375 163.003906 251.148438 160.820312 250.167969 157.148438 L 222.773438 54.984375 C 222.296875 53.214844 222.542969 51.359375 223.476562 49.757812 Z M 263.210938 92.363281 C 261.960938 91.636719 260.585938 91.242188 259.183594 91.175781 L 263.589844 107.609375 C 264.769531 106.847656 265.761719 105.816406 266.480469 104.570312 C 267.675781 102.503906 267.992188 100.09375 267.375 97.785156 C 266.757812 95.476562 265.277344 93.554688 263.210938 92.363281 Z M 325.421875 165.695312 C 325.421875 164.335938 325.1875 163.042969 324.777344 161.832031 L 232.589844 241.238281 L 324.761719 321.070312 C 325.183594 319.851562 325.425781 318.542969 325.425781 317.183594 L 325.425781 165.695312 Z M 313.429688 141.71875 L 272.738281 141.71875 L 266.757812 119.429688 C 271.003906 117.675781 274.535156 114.601562 276.867188 110.5625 C 279.660156 105.71875 280.40625 100.082031 278.960938 94.6875 C 276.214844 84.441406 266.265625 78.007812 256.019531 79.355469 L 247.695312 48.308594 C 246.386719 43.453125 243.257812 39.382812 238.878906 36.855469 C 234.5 34.332031 229.410156 33.65625 224.546875 34.957031 C 219.683594 36.257812 215.617188 39.382812 213.089844 43.765625 C 211.3125 46.835938 210.453125 50.253906 210.550781 53.695312 C 198 70.253906 176.550781 85.558594 151.015625 96.261719 C 149.628906 95.316406 147.84375 94.957031 146.09375 95.421875 L 121.890625 101.910156 C 104.429688 106.585938 93.84375 124.246094 97.75 141.71875 L 61.570312 141.71875 C 48.34375 141.71875 37.585938 152.472656 37.585938 165.691406 L 37.585938 317.183594 C 37.585938 330.402344 48.34375 341.15625 61.570312 341.15625 L 313.429688 341.15625 C 326.65625 341.15625 337.417969 330.402344 337.417969 317.183594 L 337.417969 165.695312 C 337.417969 152.472656 326.65625 141.71875 313.429688 141.71875 Z M 313.429688 141.71875 " fill-opacity="1" fill-rule="evenodd"/></g></svg>