<svg xmlns="http://www.w3.org/2000/svg" xmlns:xlink="http://www.w3.org/1999/xlink" width="500" zoomAndPan="magnify" viewBox="0 0 375 374.999991" height="500" preserveAspectRatio="xMidYMid meet" version="1.0"><defs><clipPath id="d943601275"><path d="M 37.5 37.5 L 181 37.5 L 181 181 L 37.5 181 Z M 37.5 37.5 " clip-rule="nonzero"/></clipPath><clipPath id="55482d57dd"><path d="M 194 37.5 L 337.5 37.5 L 337.5 181 L 194 181 Z M 194 37.5 " clip-rule="nonzero"/></clipPath><clipPath id="a5af7f3daa"><path d="M 194 194 L 337.5 194 L 337.5 337.5 L 194 337.5 Z M 194 194 " clip-rule="nonzero"/></clipPath><clipPath id="4b8f2fe52c"><path d="M 37.5 194 L 181 194 L 181 337.5 L 37.5 337.5 Z M 37.5 194 " clip-rule="nonzero"/></clipPath></defs><g clip-path="url(#d943601275)"><path fill="#2ca3a9" d="M 180.683594 180.683594 L 180.683594 37.5 L 44.316406 37.5 C 40.554688 37.5 37.5 40.546875 37.5 44.316406 L 37.5 180.683594 Z M 180.683594 180.683594 " fill-opacity="1" fill-rule="nonzero"/></g><g clip-path="url(#55482d57dd)"><path fill="#2ca3a9" d="M 194.316406 180.683594 L 337.5 180.683594 L 337.5 44.316406 C 337.5 40.546875 334.445312 37.5 330.683594 37.5 L 194.316406 37.5 Z M 194.316406 180.683594 " fill-opacity="1" fill-rule="nonzero"/></g><g clip-path="url(#a5af7f3daa)"><path fill="#2ca3a9" d="M 194.316406 194.316406 L 194.316406 337.5 L 330.683594 337.5 C 334.445312 337.5 337.5 334.453125 337.5 330.683594 L 337.5 194.316406 Z M 194.316406 194.316406 " fill-opacity="1" fill-rule="nonzero"/></g><g clip-path="url(#4b8f2fe52c)"><path fill="#2ca3a9" d="M 180.683594 194.316406 L 37.5 194.316406 L 37.5 330.683594 C 37.5 334.453125 40.554688 337.5 44.316406 337.5 L 180.683594 337.5 Z M 180.683594 194.316406 " fill-opacity="1" fill-rule="nonzero"/></g></svg>