<svg xmlns="http://www.w3.org/2000/svg" xmlns:xlink="http://www.w3.org/1999/xlink" width="50" zoomAndPan="magnify" viewBox="0 0 37.5 37.499999" height="50" preserveAspectRatio="xMidYMid meet" version="1.0"><defs><clipPath id="0f9fb2389e"><path d="M 14 13 L 32.808594 13 L 32.808594 23 L 14 23 Z M 14 13 " clip-rule="nonzero"/></clipPath><clipPath id="7001a40855"><path d="M 14 22 L 32.808594 22 L 32.808594 28 L 14 28 Z M 14 22 " clip-rule="nonzero"/></clipPath><clipPath id="612da60b54"><path d="M 14 18 L 32.808594 18 L 32.808594 31.933594 L 14 31.933594 Z M 14 18 " clip-rule="nonzero"/></clipPath><clipPath id="d76f320bf7"><path d="M 5.058594 5.683594 L 30 5.683594 L 30 30 L 5.058594 30 Z M 5.058594 5.683594 " clip-rule="nonzero"/></clipPath></defs><g clip-path="url(#0f9fb2389e)"><path fill="#2ca3a9" d="M 17.191406 18.234375 C 17.191406 18.234375 17.191406 18.230469 17.191406 18.226562 C 17.191406 18.230469 17.191406 18.234375 17.191406 18.234375 Z M 17.199219 18.210938 C 17.214844 18.175781 17.261719 18.097656 17.394531 17.980469 C 17.632812 17.761719 18.050781 17.511719 18.671875 17.273438 C 19.90625 16.804688 21.699219 16.488281 23.742188 16.488281 C 25.78125 16.488281 27.574219 16.804688 28.808594 17.273438 C 29.429688 17.511719 29.847656 17.761719 30.085938 17.980469 C 30.21875 18.097656 30.265625 18.175781 30.28125 18.210938 C 30.265625 18.246094 30.21875 18.324219 30.085938 18.445312 C 29.847656 18.660156 29.429688 18.914062 28.808594 19.148438 C 27.574219 19.621094 25.78125 19.9375 23.742188 19.9375 C 21.699219 19.9375 19.90625 19.621094 18.671875 19.148438 C 18.050781 18.914062 17.632812 18.660156 17.394531 18.445312 C 17.261719 18.324219 17.214844 18.246094 17.199219 18.210938 Z M 30.289062 18.234375 C 30.289062 18.234375 30.289062 18.230469 30.289062 18.226562 C 30.289062 18.230469 30.289062 18.234375 30.289062 18.234375 Z M 30.289062 18.199219 C 30.289062 18.195312 30.289062 18.191406 30.289062 18.191406 C 30.289062 18.191406 30.289062 18.195312 30.289062 18.199219 Z M 17.191406 18.199219 C 17.191406 18.195312 17.191406 18.191406 17.191406 18.191406 C 17.191406 18.191406 17.191406 18.195312 17.191406 18.199219 Z M 17.765625 14.941406 C 19.359375 14.335938 21.46875 13.988281 23.742188 13.988281 C 26.011719 13.988281 28.125 14.335938 29.714844 14.941406 C 30.507812 15.242188 31.234375 15.632812 31.785156 16.128906 C 32.335938 16.625 32.808594 17.328125 32.808594 18.210938 C 32.808594 19.097656 32.335938 19.796875 31.785156 20.296875 C 31.234375 20.792969 30.507812 21.183594 29.714844 21.484375 C 28.125 22.089844 26.011719 22.4375 23.742188 22.4375 C 21.46875 22.4375 19.359375 22.089844 17.765625 21.484375 C 16.976562 21.183594 16.25 20.792969 15.695312 20.296875 C 15.144531 19.796875 14.671875 19.097656 14.671875 18.210938 C 14.671875 17.328125 15.144531 16.625 15.695312 16.128906 C 16.25 15.632812 16.976562 15.242188 17.765625 14.941406 Z M 17.765625 14.941406 " fill-opacity="1" fill-rule="evenodd"/></g><g clip-path="url(#7001a40855)"><path fill="#2ca3a9" d="M 30.289062 22.960938 C 30.289062 22.964844 30.289062 22.96875 30.289062 22.972656 L 32.808594 22.972656 C 32.808594 23.859375 32.335938 24.558594 31.785156 25.058594 C 31.234375 25.554688 30.507812 25.941406 29.714844 26.246094 C 28.125 26.851562 26.011719 27.199219 23.742188 27.199219 C 21.46875 27.199219 19.359375 26.851562 17.765625 26.246094 C 16.976562 25.941406 16.25 25.554688 15.695312 25.058594 C 15.144531 24.558594 14.671875 23.859375 14.671875 22.972656 L 17.195312 22.972656 C 17.195312 22.96875 17.191406 22.964844 17.191406 22.960938 C 17.199219 22.980469 17.238281 23.066406 17.394531 23.207031 C 17.632812 23.421875 18.050781 23.675781 18.671875 23.910156 C 19.90625 24.382812 21.699219 24.699219 23.742188 24.699219 C 25.78125 24.699219 27.574219 24.382812 28.808594 23.910156 C 29.429688 23.675781 29.847656 23.421875 30.085938 23.207031 C 30.246094 23.066406 30.28125 22.980469 30.289062 22.960938 Z M 30.289062 22.953125 C 30.289062 22.953125 30.289062 22.957031 30.289062 22.960938 C 30.289062 22.957031 30.289062 22.953125 30.289062 22.953125 Z M 17.191406 22.953125 C 17.191406 22.953125 17.191406 22.957031 17.191406 22.960938 C 17.191406 22.957031 17.191406 22.953125 17.191406 22.953125 Z M 17.191406 22.953125 " fill-opacity="1" fill-rule="evenodd"/></g><g clip-path="url(#612da60b54)"><path fill="#2ca3a9" d="M 17.195312 27.722656 L 17.195312 18.210938 L 14.671875 18.210938 L 14.671875 27.734375 C 14.671875 28.621094 15.144531 29.320312 15.695312 29.820312 C 16.25 30.316406 16.976562 30.703125 17.765625 31.007812 C 19.359375 31.613281 21.46875 31.960938 23.742188 31.960938 C 26.011719 31.960938 28.125 31.613281 29.714844 31.007812 C 30.507812 30.703125 31.234375 30.316406 31.785156 29.820312 C 32.335938 29.320312 32.808594 28.621094 32.808594 27.734375 L 32.808594 18.210938 L 30.289062 18.210938 L 30.289062 27.722656 C 30.277344 27.75 30.238281 27.832031 30.085938 27.96875 C 29.847656 28.183594 29.429688 28.4375 28.808594 28.671875 C 27.574219 29.144531 25.78125 29.460938 23.742188 29.460938 C 21.699219 29.460938 19.90625 29.144531 18.671875 28.671875 C 18.050781 28.4375 17.632812 28.183594 17.394531 27.96875 C 17.242188 27.832031 17.203125 27.75 17.195312 27.722656 Z M 30.289062 27.714844 C 30.289062 27.714844 30.289062 27.71875 30.289062 27.722656 C 30.289062 27.71875 30.289062 27.714844 30.289062 27.714844 Z M 17.191406 27.722656 C 17.191406 27.71875 17.191406 27.714844 17.191406 27.714844 C 17.191406 27.714844 17.191406 27.71875 17.191406 27.722656 Z M 17.191406 27.722656 " fill-opacity="1" fill-rule="evenodd"/></g><g clip-path="url(#d76f320bf7)"><path fill="#2ca3a9" d="M 5.058594 6.902344 C 5.058594 6.214844 5.625 5.652344 6.320312 5.652344 L 12.808594 5.652344 C 13.222656 5.652344 13.613281 5.855469 13.847656 6.195312 L 15.636719 8.777344 L 27.945312 8.777344 C 28.640625 8.777344 29.207031 9.339844 29.207031 10.027344 L 29.207031 12.855469 L 26.683594 12.855469 L 26.683594 11.277344 L 14.972656 11.277344 C 14.554688 11.277344 14.164062 11.074219 13.929688 10.734375 L 12.144531 8.152344 L 7.582031 8.152344 L 7.582031 27.082031 L 12.929688 27.082031 L 12.929688 29.582031 L 6.320312 29.582031 C 5.625 29.582031 5.058594 29.019531 5.058594 28.332031 Z M 5.058594 6.902344 " fill-opacity="1" fill-rule="evenodd"/></g></svg>