<svg xmlns="http://www.w3.org/2000/svg" xmlns:xlink="http://www.w3.org/1999/xlink" width="50" zoomAndPan="magnify" viewBox="0 0 37.5 37.499999" height="50" preserveAspectRatio="xMidYMid meet" version="1.0"><defs><clipPath id="e8720fda05"><path d="M 6.550781 5.546875 L 31.300781 5.546875 L 31.300781 31.796875 L 6.550781 31.796875 Z M 6.550781 5.546875 " clip-rule="nonzero"/></clipPath></defs><g clip-path="url(#e8720fda05)"><path fill="#1b0739" d="M 18.921875 5.546875 C 18.546875 5.546875 18.167969 5.636719 17.84375 5.816406 L 7.632812 11.59375 C 6.972656 11.96875 6.558594 12.675781 6.558594 13.421875 L 6.558594 23.898438 C 6.558594 24.65625 6.972656 25.355469 7.632812 25.726562 L 10.3125 27.242188 C 11.609375 27.867188 12.074219 27.867188 12.660156 27.867188 C 14.589844 27.867188 15.691406 26.726562 15.691406 24.746094 L 15.691406 13.9375 C 15.691406 13.773438 15.558594 13.640625 15.394531 13.640625 L 14.105469 13.640625 C 13.929688 13.640625 13.804688 13.773438 13.804688 13.9375 L 13.804688 24.738281 C 13.804688 25.625 12.867188 26.496094 11.351562 25.757812 L 8.550781 24.171875 C 8.445312 24.121094 8.382812 24.011719 8.382812 23.898438 L 8.382812 13.429688 C 8.382812 13.308594 8.445312 13.207031 8.550781 13.148438 L 18.761719 7.375 C 18.855469 7.3125 18.980469 7.3125 19.082031 7.375 L 29.296875 13.148438 C 29.398438 13.207031 29.460938 13.308594 29.460938 13.421875 L 29.460938 23.898438 C 29.460938 24.011719 29.398438 24.121094 29.304688 24.171875 L 19.082031 29.957031 C 18.988281 30.007812 18.855469 30.007812 18.761719 29.957031 L 16.132812 28.433594 C 16.0625 28.382812 15.960938 28.375 15.886719 28.414062 C 15.15625 28.816406 15.023438 28.867188 14.34375 29.101562 C 14.175781 29.152344 13.917969 29.25 14.433594 29.535156 L 17.84375 31.511719 C 18.175781 31.695312 18.546875 31.796875 18.917969 31.796875 C 19.296875 31.796875 19.667969 31.695312 20 31.511719 L 30.222656 25.726562 C 30.882812 25.355469 31.292969 24.65625 31.292969 23.898438 L 31.292969 13.429688 C 31.292969 12.675781 30.882812 11.976562 30.222656 11.601562 L 20 5.816406 C 19.671875 5.636719 19.296875 5.546875 18.921875 5.546875 Z M 21.667969 13.628906 C 18.753906 13.628906 17.011719 14.839844 17.011719 16.859375 C 17.011719 19.050781 18.742188 19.652344 21.542969 19.925781 C 24.894531 20.25 25.152344 20.734375 25.152344 21.382812 C 25.152344 22.492188 24.234375 22.96875 22.082031 22.96875 C 19.371094 22.96875 18.773438 22.300781 18.578125 20.988281 C 18.554688 20.847656 18.433594 20.746094 18.289062 20.746094 L 16.957031 20.746094 C 16.792969 20.746094 16.671875 20.878906 16.671875 21.027344 C 16.671875 22.714844 17.609375 24.722656 22.082031 24.722656 C 25.316406 24.722656 27.171875 23.472656 27.171875 21.292969 C 27.171875 19.128906 25.675781 18.554688 22.542969 18.140625 C 19.359375 17.738281 19.039062 17.523438 19.039062 16.796875 C 19.039062 16.191406 19.320312 15.394531 21.667969 15.394531 C 23.761719 15.394531 24.542969 15.839844 24.863281 17.222656 C 24.894531 17.351562 25.007812 17.453125 25.152344 17.453125 L 26.480469 17.453125 C 26.5625 17.453125 26.636719 17.414062 26.695312 17.351562 C 26.75 17.304688 26.78125 17.222656 26.769531 17.128906 C 26.5625 14.746094 24.945312 13.628906 21.667969 13.628906 Z M 21.667969 13.628906 " fill-opacity="1" fill-rule="nonzero"/></g></svg>