<svg xmlns="http://www.w3.org/2000/svg" xmlns:xlink="http://www.w3.org/1999/xlink" width="260" zoomAndPan="magnify" viewBox="0 0 194.87999 195.000001" height="260" preserveAspectRatio="xMidYMid meet" version="1.0"><defs><clipPath id="id1"><path d="M 8.613281 7.617188 L 186.195312 7.617188 L 186.195312 185.203125 L 8.613281 185.203125 Z M 8.613281 7.617188 " clip-rule="nonzero"/></clipPath></defs><g clip-path="url(#id1)"><path fill="#ac61b9" d="M 97.40625 7.617188 C 48.363281 7.617188 8.613281 47.371094 8.613281 96.414062 C 8.613281 145.449219 48.363281 185.203125 97.40625 185.203125 C 146.441406 185.203125 186.195312 145.449219 186.195312 96.414062 C 186.195312 47.371094 146.441406 7.617188 97.40625 7.617188 " fill-opacity="1" fill-rule="nonzero"/></g><path fill="#f86d58" d="M 86.132812 120.015625 C 86.132812 126.824219 84.144531 132.085938 80.175781 135.796875 C 76.207031 139.5 71.039062 141.347656 64.675781 141.347656 L 45.101562 141.347656 C 44.726562 141.347656 44.414062 141.222656 44.160156 140.964844 C 43.902344 140.699219 43.777344 140.386719 43.777344 140.023438 L 43.777344 64.882812 C 43.777344 64.511719 43.902344 64.195312 44.160156 63.9375 C 44.414062 63.671875 44.726562 63.535156 45.101562 63.535156 L 62.667969 63.535156 C 69.707031 63.535156 75.226562 65.316406 79.234375 68.878906 C 83.238281 72.433594 85.242188 77.617188 85.242188 84.433594 C 85.242188 92.074219 82.535156 97.519531 77.121094 100.777344 C 76.746094 101 76.671875 101.222656 76.894531 101.4375 C 79.78125 103.289062 82.035156 105.777344 83.667969 108.894531 C 85.308594 112 86.132812 115.710938 86.132812 120.015625 Z M 57.21875 74.65625 C 56.84375 74.65625 56.660156 74.84375 56.660156 75.214844 L 56.660156 95.886719 C 56.660156 96.261719 56.84375 96.445312 57.21875 96.445312 L 62.894531 96.445312 C 65.929688 96.445312 68.296875 95.519531 70 93.671875 C 71.710938 91.8125 72.566406 89.175781 72.566406 85.761719 C 72.566406 82.214844 71.710938 79.476562 70 77.554688 C 68.296875 75.625 65.929688 74.65625 62.894531 74.65625 Z M 63.679688 130.125 C 66.632812 130.125 68.960938 129.089844 70.664062 127.015625 C 72.375 124.933594 73.230469 122.003906 73.230469 118.234375 C 73.230469 114.382812 72.375 111.363281 70.664062 109.171875 C 68.960938 106.988281 66.632812 105.890625 63.679688 105.890625 L 57.21875 105.890625 C 56.84375 105.890625 56.660156 106.078125 56.660156 106.449219 L 56.660156 129.566406 C 56.660156 129.941406 56.84375 130.125 57.21875 130.125 Z M 63.679688 130.125 " fill-opacity="1" fill-rule="nonzero"/><path fill="#f86d58" d="M 145.378906 120.015625 C 145.378906 126.824219 143.394531 132.085938 139.425781 135.796875 C 135.453125 139.5 130.285156 141.347656 123.921875 141.347656 L 104.351562 141.347656 C 103.976562 141.347656 103.664062 141.222656 103.410156 140.964844 C 103.152344 140.699219 103.023438 140.386719 103.023438 140.023438 L 103.023438 64.882812 C 103.023438 64.511719 103.152344 64.195312 103.410156 63.9375 C 103.664062 63.671875 103.976562 63.535156 104.351562 63.535156 L 121.914062 63.535156 C 128.957031 63.535156 134.476562 65.316406 138.484375 68.878906 C 142.484375 72.433594 144.488281 77.617188 144.488281 84.433594 C 144.488281 92.074219 141.78125 97.519531 136.371094 100.777344 C 135.996094 101 135.921875 101.222656 136.144531 101.4375 C 139.027344 103.289062 141.285156 105.777344 142.917969 108.894531 C 144.558594 112 145.378906 115.710938 145.378906 120.015625 Z M 116.46875 74.65625 C 116.09375 74.65625 115.910156 74.84375 115.910156 75.214844 L 115.910156 95.886719 C 115.910156 96.261719 116.09375 96.445312 116.46875 96.445312 L 122.140625 96.445312 C 125.179688 96.445312 127.546875 95.519531 129.246094 93.671875 C 130.957031 91.8125 131.8125 89.175781 131.8125 85.761719 C 131.8125 82.214844 130.957031 79.476562 129.246094 77.554688 C 127.546875 75.625 125.179688 74.65625 122.140625 74.65625 Z M 122.925781 130.125 C 125.882812 130.125 128.207031 129.089844 129.910156 127.015625 C 131.621094 124.933594 132.476562 122.003906 132.476562 118.234375 C 132.476562 114.382812 131.621094 111.363281 129.910156 109.171875 C 128.207031 106.988281 125.882812 105.890625 122.925781 105.890625 L 116.46875 105.890625 C 116.09375 105.890625 115.910156 106.078125 115.910156 106.449219 L 115.910156 129.566406 C 115.910156 129.941406 116.09375 130.125 116.46875 130.125 Z M 122.925781 130.125 " fill-opacity="1" fill-rule="nonzero"/><path fill="#00ffff" d="M 95.066406 117.953125 C 95.066406 124.761719 93.082031 130.023438 89.113281 133.734375 C 85.140625 137.433594 79.972656 139.285156 73.609375 139.285156 L 54.039062 139.285156 C 53.664062 139.285156 53.351562 139.160156 53.097656 138.902344 C 52.839844 138.636719 52.714844 138.320312 52.714844 137.957031 L 52.714844 62.816406 C 52.714844 62.445312 52.839844 62.132812 53.097656 61.875 C 53.351562 61.609375 53.664062 61.472656 54.039062 61.472656 L 71.601562 61.472656 C 78.644531 61.472656 84.164062 63.253906 88.171875 66.816406 C 92.171875 70.367188 94.175781 75.554688 94.175781 82.371094 C 94.175781 90.007812 91.472656 95.457031 86.058594 98.710938 C 85.683594 98.933594 85.609375 99.15625 85.832031 99.375 C 88.71875 101.226562 90.972656 103.714844 92.605469 106.832031 C 94.246094 109.9375 95.066406 113.648438 95.066406 117.953125 Z M 66.15625 72.59375 C 65.78125 72.59375 65.597656 72.78125 65.597656 73.152344 L 65.597656 93.824219 C 65.597656 94.199219 65.78125 94.382812 66.15625 94.382812 L 71.832031 94.382812 C 74.867188 94.382812 77.234375 93.457031 78.9375 91.605469 C 80.648438 89.746094 81.503906 87.109375 81.503906 83.699219 C 81.503906 80.148438 80.648438 77.414062 78.9375 75.492188 C 77.234375 73.5625 74.867188 72.59375 71.832031 72.59375 Z M 72.617188 128.058594 C 75.570312 128.058594 77.898438 127.027344 79.597656 124.953125 C 81.308594 122.871094 82.164062 119.941406 82.164062 116.171875 C 82.164062 112.320312 81.308594 109.300781 79.597656 107.109375 C 77.898438 104.921875 75.570312 103.828125 72.617188 103.828125 L 66.15625 103.828125 C 65.78125 103.828125 65.597656 104.015625 65.597656 104.386719 L 65.597656 127.5 C 65.597656 127.875 65.78125 128.058594 66.15625 128.058594 Z M 72.617188 128.058594 " fill-opacity="1" fill-rule="nonzero"/><path fill="#00ffff" d="M 154.316406 117.953125 C 154.316406 124.761719 152.328125 130.023438 148.363281 133.734375 C 144.390625 137.433594 139.222656 139.285156 132.859375 139.285156 L 113.289062 139.285156 C 112.914062 139.285156 112.597656 139.160156 112.34375 138.902344 C 112.089844 138.636719 111.960938 138.320312 111.960938 137.957031 L 111.960938 62.816406 C 111.960938 62.445312 112.089844 62.132812 112.34375 61.875 C 112.597656 61.609375 112.914062 61.472656 113.289062 61.472656 L 130.851562 61.472656 C 137.890625 61.472656 143.414062 63.253906 147.417969 66.816406 C 151.421875 70.367188 153.425781 75.554688 153.425781 82.371094 C 153.425781 90.007812 150.71875 95.457031 145.308594 98.710938 C 144.933594 98.933594 144.859375 99.15625 145.082031 99.375 C 147.964844 101.226562 150.222656 103.714844 151.855469 106.832031 C 153.496094 109.9375 154.316406 113.648438 154.316406 117.953125 Z M 125.40625 72.59375 C 125.027344 72.59375 124.847656 72.78125 124.847656 73.152344 L 124.847656 93.824219 C 124.847656 94.199219 125.027344 94.382812 125.40625 94.382812 L 131.078125 94.382812 C 134.117188 94.382812 136.480469 93.457031 138.183594 91.605469 C 139.894531 89.746094 140.75 87.109375 140.75 83.699219 C 140.75 80.148438 139.894531 77.414062 138.183594 75.492188 C 136.480469 73.5625 134.117188 72.59375 131.078125 72.59375 Z M 131.863281 128.058594 C 134.820312 128.058594 137.144531 127.027344 138.847656 124.953125 C 140.558594 122.871094 141.414062 119.941406 141.414062 116.171875 C 141.414062 112.320312 140.558594 109.300781 138.847656 107.109375 C 137.144531 104.921875 134.820312 103.828125 131.863281 103.828125 L 125.40625 103.828125 C 125.027344 103.828125 124.847656 104.015625 124.847656 104.386719 L 124.847656 127.5 C 124.847656 127.875 125.027344 128.058594 125.40625 128.058594 Z M 131.863281 128.058594 " fill-opacity="1" fill-rule="nonzero"/><path fill="#191919" d="M 90.597656 118.984375 C 90.597656 125.792969 88.613281 131.054688 84.644531 134.765625 C 80.675781 138.46875 75.507812 140.316406 69.144531 140.316406 L 49.570312 140.316406 C 49.195312 140.316406 48.882812 140.191406 48.628906 139.933594 C 48.371094 139.667969 48.246094 139.351562 48.246094 138.992188 L 48.246094 63.851562 C 48.246094 63.480469 48.371094 63.164062 48.628906 62.90625 C 48.882812 62.640625 49.195312 62.503906 49.570312 62.503906 L 67.136719 62.503906 C 74.175781 62.503906 79.695312 64.285156 83.703125 67.847656 C 87.707031 71.402344 89.707031 76.585938 89.707031 83.402344 C 89.707031 91.042969 87.003906 96.488281 81.589844 99.746094 C 81.214844 99.96875 81.140625 100.191406 81.363281 100.40625 C 84.25 102.257812 86.503906 104.746094 88.136719 107.863281 C 89.777344 110.96875 90.597656 114.679688 90.597656 118.984375 Z M 61.6875 73.625 C 61.3125 73.625 61.128906 73.8125 61.128906 74.183594 L 61.128906 94.855469 C 61.128906 95.230469 61.3125 95.414062 61.6875 95.414062 L 67.363281 95.414062 C 70.398438 95.414062 72.765625 94.488281 74.46875 92.640625 C 76.179688 90.78125 77.035156 88.144531 77.035156 84.730469 C 77.035156 81.179688 76.179688 78.445312 74.46875 76.523438 C 72.765625 74.59375 70.398438 73.625 67.363281 73.625 Z M 68.148438 129.09375 C 71.101562 129.09375 73.429688 128.058594 75.132812 125.984375 C 76.84375 123.902344 77.699219 120.972656 77.699219 117.203125 C 77.699219 113.351562 76.84375 110.332031 75.132812 108.140625 C 73.429688 105.957031 71.101562 104.859375 68.148438 104.859375 L 61.6875 104.859375 C 61.3125 104.859375 61.128906 105.046875 61.128906 105.417969 L 61.128906 128.535156 C 61.128906 128.910156 61.3125 129.09375 61.6875 129.09375 Z M 68.148438 129.09375 " fill-opacity="1" fill-rule="nonzero"/><path fill="#191919" d="M 149.847656 118.984375 C 149.847656 125.792969 147.863281 131.054688 143.894531 134.765625 C 139.921875 138.46875 134.753906 140.316406 128.390625 140.316406 L 108.820312 140.316406 C 108.445312 140.316406 108.128906 140.191406 107.878906 139.933594 C 107.621094 139.667969 107.492188 139.351562 107.492188 138.992188 L 107.492188 63.851562 C 107.492188 63.480469 107.621094 63.164062 107.878906 62.90625 C 108.128906 62.640625 108.445312 62.503906 108.820312 62.503906 L 126.382812 62.503906 C 133.421875 62.503906 138.945312 64.285156 142.953125 67.847656 C 146.953125 71.402344 148.957031 76.585938 148.957031 83.402344 C 148.957031 91.042969 146.25 96.488281 140.839844 99.746094 C 140.464844 99.96875 140.390625 100.191406 140.613281 100.40625 C 143.496094 102.257812 145.753906 104.746094 147.386719 107.863281 C 149.027344 110.96875 149.847656 114.679688 149.847656 118.984375 Z M 120.9375 73.625 C 120.5625 73.625 120.378906 73.8125 120.378906 74.183594 L 120.378906 94.855469 C 120.378906 95.230469 120.5625 95.414062 120.9375 95.414062 L 126.609375 95.414062 C 129.648438 95.414062 132.015625 94.488281 133.714844 92.640625 C 135.425781 90.78125 136.28125 88.144531 136.28125 84.730469 C 136.28125 81.179688 135.425781 78.445312 133.714844 76.523438 C 132.015625 74.59375 129.648438 73.625 126.609375 73.625 Z M 127.394531 129.09375 C 130.351562 129.09375 132.675781 128.058594 134.378906 125.984375 C 136.089844 123.902344 136.945312 120.972656 136.945312 117.203125 C 136.945312 113.351562 136.089844 110.332031 134.378906 108.140625 C 132.675781 105.957031 130.351562 104.859375 127.394531 104.859375 L 120.9375 104.859375 C 120.5625 104.859375 120.378906 105.046875 120.378906 105.417969 L 120.378906 128.535156 C 120.378906 128.910156 120.5625 129.09375 120.9375 129.09375 Z M 127.394531 129.09375 " fill-opacity="1" fill-rule="nonzero"/></svg>