<svg xmlns="http://www.w3.org/2000/svg" xmlns:xlink="http://www.w3.org/1999/xlink" width="50" zoomAndPan="magnify" viewBox="0 0 37.5 37.499999" height="50" preserveAspectRatio="xMidYMid meet" version="1.0"><defs><clipPath id="7c04fbf72a"><path d="M 5.171875 6.308594 L 32.171875 6.308594 L 32.171875 31 L 5.171875 31 Z M 5.171875 6.308594 " clip-rule="nonzero"/></clipPath></defs><path fill="#2ca3a9" d="M 18.671875 16.210938 C 17.335938 16.210938 16.257812 17.292969 16.257812 18.625 C 16.257812 19.960938 17.335938 21.042969 18.671875 21.042969 C 20.007812 21.042969 21.085938 19.960938 21.085938 18.625 C 21.085938 17.292969 20.007812 16.210938 18.671875 16.210938 Z M 18.671875 16.210938 " fill-opacity="1" fill-rule="nonzero"/><g clip-path="url(#7c04fbf72a)"><path fill="#2ca3a9" d="M 10.25 22.90625 C 10.488281 22.984375 10.726562 23.0625 10.96875 23.132812 C 10.890625 23.449219 10.820312 23.761719 10.757812 24.082031 C 10.203125 27.011719 10.632812 29.332031 12.015625 30.128906 C 13.441406 30.953125 15.835938 30.109375 18.164062 28.066406 C 18.351562 27.902344 18.535156 27.734375 18.71875 27.554688 C 18.949219 27.78125 19.195312 27.996094 19.433594 28.207031 C 21.691406 30.148438 23.921875 30.933594 25.300781 30.140625 C 26.722656 29.316406 27.1875 26.820312 26.585938 23.78125 C 26.539062 23.550781 26.488281 23.3125 26.429688 23.070312 C 26.597656 23.023438 26.761719 22.96875 26.925781 22.917969 C 29.96875 21.910156 32.171875 20.277344 32.171875 18.605469 C 32.171875 17.007812 30.09375 15.457031 27.226562 14.46875 C 26.941406 14.375 26.65625 14.285156 26.371094 14.199219 C 26.417969 14.003906 26.460938 13.808594 26.503906 13.613281 C 27.152344 10.46875 26.722656 7.945312 25.285156 7.109375 C 23.898438 6.3125 21.636719 7.140625 19.347656 9.136719 C 19.121094 9.332031 18.898438 9.535156 18.6875 9.742188 C 18.542969 9.605469 18.398438 9.46875 18.25 9.335938 C 15.851562 7.203125 13.445312 6.308594 12.007812 7.148438 C 10.625 7.949219 10.210938 10.328125 10.792969 13.304688 C 10.851562 13.597656 10.914062 13.886719 10.988281 14.183594 C 10.652344 14.277344 10.320312 14.382812 10.007812 14.496094 C 7.191406 15.472656 5.171875 17.011719 5.171875 18.605469 C 5.171875 20.253906 7.324219 21.902344 10.25 22.90625 Z M 17.421875 27.203125 C 16.550781 28 15.542969 28.632812 14.449219 29.066406 C 13.863281 29.34375 13.1875 29.371094 12.585938 29.136719 C 11.746094 28.648438 11.398438 26.789062 11.875 24.28125 C 11.933594 23.984375 11.996094 23.691406 12.066406 23.398438 C 13.25 23.652344 14.441406 23.828125 15.648438 23.917969 C 16.34375 24.902344 17.109375 25.847656 17.925781 26.734375 C 17.757812 26.898438 17.589844 27.054688 17.421875 27.203125 Z M 24.117188 17.296875 C 23.871094 16.832031 23.617188 16.367188 23.355469 15.914062 C 23.09375 15.46875 22.828125 15.023438 22.546875 14.585938 C 23.398438 14.691406 24.207031 14.832031 24.96875 15.007812 C 24.726562 15.789062 24.441406 16.546875 24.117188 17.296875 Z M 24.128906 19.925781 C 24.464844 20.691406 24.761719 21.464844 25.019531 22.261719 C 24.203125 22.445312 23.375 22.589844 22.542969 22.683594 C 22.828125 22.242188 23.09375 21.785156 23.359375 21.332031 C 23.628906 20.867188 23.882812 20.398438 24.128906 19.925781 Z M 23.519531 18.613281 C 23.167969 19.339844 22.785156 20.058594 22.378906 20.765625 C 21.980469 21.464844 21.554688 22.144531 21.105469 22.820312 C 20.320312 22.878906 19.5 22.90625 18.675781 22.90625 C 17.847656 22.90625 17.042969 22.878906 16.269531 22.832031 C 15.8125 22.160156 15.378906 21.476562 14.972656 20.773438 C 14.566406 20.074219 14.191406 19.359375 13.839844 18.632812 L 13.835938 18.632812 C 14.183594 17.902344 14.5625 17.191406 14.964844 16.492188 C 15.367188 15.789062 15.796875 15.109375 16.25 14.4375 C 17.042969 14.378906 17.847656 14.347656 18.671875 14.347656 C 19.496094 14.347656 20.308594 14.378906 21.09375 14.4375 C 21.542969 15.105469 21.96875 15.785156 22.375 16.480469 C 22.78125 17.175781 23.160156 17.890625 23.519531 18.613281 Z M 13.984375 15.925781 C 13.722656 16.375 13.472656 16.832031 13.234375 17.296875 C 12.902344 16.511719 12.621094 15.742188 12.390625 14.996094 C 13.148438 14.828125 13.957031 14.691406 14.792969 14.585938 C 14.515625 15.023438 14.242188 15.46875 13.984375 15.925781 Z M 13.234375 19.964844 C 13.476562 20.429688 13.726562 20.890625 13.988281 21.34375 C 14.257812 21.800781 14.53125 22.261719 14.820312 22.710938 C 14 22.621094 13.183594 22.488281 12.375 22.3125 C 12.605469 21.554688 12.898438 20.769531 13.234375 19.964844 Z M 18.714844 25.921875 C 18.175781 25.339844 17.640625 24.699219 17.117188 24.007812 C 17.625 24.027344 18.144531 24.039062 18.671875 24.039062 C 19.214844 24.039062 19.75 24.027344 20.277344 24 C 19.792969 24.671875 19.269531 25.308594 18.714844 25.921875 Z M 25.605469 27.503906 C 25.558594 28.148438 25.242188 28.75 24.738281 29.15625 C 23.898438 29.640625 22.109375 29.007812 20.179688 27.351562 C 19.957031 27.160156 19.738281 26.953125 19.511719 26.746094 C 20.316406 25.851562 21.0625 24.910156 21.734375 23.917969 C 22.941406 23.816406 24.144531 23.632812 25.332031 23.363281 C 25.386719 23.578125 25.433594 23.796875 25.476562 24.007812 C 25.734375 25.148438 25.777344 26.332031 25.605469 27.503906 Z M 26.066406 15.289062 C 26.339844 15.367188 26.601562 15.449219 26.855469 15.535156 C 29.3125 16.378906 31.039062 17.636719 31.039062 18.59375 C 31.039062 19.628906 29.195312 20.964844 26.566406 21.835938 C 26.417969 21.882812 26.269531 21.929688 26.117188 21.972656 C 25.75 20.820312 25.296875 19.699219 24.773438 18.605469 C 25.28125 17.527344 25.707031 16.421875 26.066406 15.289062 Z M 20.089844 9.992188 C 22.050781 8.28125 23.882812 7.613281 24.714844 8.09375 C 25.605469 8.605469 25.949219 10.671875 25.390625 13.386719 C 25.351562 13.566406 25.316406 13.742188 25.269531 13.917969 C 24.097656 13.652344 22.910156 13.460938 21.71875 13.355469 C 21.035156 12.375 20.285156 11.4375 19.472656 10.554688 C 19.679688 10.359375 19.878906 10.175781 20.089844 9.992188 Z M 18.683594 11.363281 C 19.238281 11.964844 19.757812 12.597656 20.242188 13.25 C 19.199219 13.203125 18.148438 13.203125 17.105469 13.25 C 17.621094 12.570312 18.15625 11.9375 18.683594 11.363281 Z M 12.566406 8.128906 C 13.453125 7.613281 15.417969 8.351562 17.492188 10.1875 C 17.621094 10.300781 17.753906 10.429688 17.890625 10.554688 C 17.074219 11.4375 16.320312 12.375 15.628906 13.355469 C 14.4375 13.460938 13.257812 13.644531 12.085938 13.90625 C 12.015625 13.636719 11.957031 13.363281 11.898438 13.085938 C 11.402344 10.53125 11.730469 8.609375 12.566406 8.128906 Z M 10.378906 15.566406 C 10.675781 15.460938 10.984375 15.367188 11.289062 15.277344 C 11.648438 16.421875 12.082031 17.542969 12.582031 18.632812 C 12.074219 19.734375 11.636719 20.871094 11.273438 22.035156 C 11.050781 21.972656 10.835938 21.902344 10.617188 21.828125 C 9.496094 21.476562 8.21875 20.914062 7.296875 20.183594 C 6.765625 19.8125 6.40625 19.246094 6.304688 18.605469 C 6.304688 17.640625 7.972656 16.40625 10.378906 15.566406 Z M 10.378906 15.566406 " fill-opacity="1" fill-rule="nonzero"/></g></svg>