<svg xmlns="http://www.w3.org/2000/svg" xmlns:xlink="http://www.w3.org/1999/xlink" width="500" zoomAndPan="magnify" viewBox="0 0 375 374.999991" height="500" preserveAspectRatio="xMidYMid meet" version="1.0"><defs><clipPath id="133073715e"><path d="M 57.65625 57.65625 L 317.15625 57.65625 L 317.15625 317.15625 L 57.65625 317.15625 Z M 57.65625 57.65625 " clip-rule="nonzero"/></clipPath></defs><g clip-path="url(#133073715e)"><path fill="#1b0739" d="M 187.40625 317.15625 C 259.078125 317.15625 317.15625 259.078125 317.15625 187.40625 C 317.15625 115.738281 259.078125 57.65625 187.40625 57.65625 C 115.738281 57.65625 57.65625 115.738281 57.65625 187.40625 C 57.65625 259.078125 115.738281 317.15625 187.40625 317.15625 Z M 131.492188 240.851562 L 137.980469 226.640625 C 138.90625 224.789062 140.140625 223.550781 141.996094 222.933594 C 142.613281 222.625 143.539062 222.625 144.15625 222.625 C 145.394531 222.625 146.320312 222.933594 147.554688 223.550781 C 157.132812 228.804688 170.417969 231.894531 182.464844 231.894531 C 196.675781 231.894531 207.179688 226.023438 207.179688 217.992188 C 207.179688 212.738281 204.089844 206.5625 182.15625 199.457031 C 158.058594 192.042969 133.65625 180.921875 133.65625 156.207031 C 133.65625 137.363281 147.246094 122.84375 170.109375 116.972656 L 173.507812 116.046875 L 173.507812 100.597656 C 173.507812 96.890625 176.59375 93.804688 180.304688 93.804688 L 196.675781 93.804688 C 200.382812 93.804688 203.472656 96.890625 203.472656 100.597656 L 203.472656 114.5 L 207.488281 115.117188 C 217.375 116.355469 226.023438 118.824219 233.746094 122.53125 C 235.292969 123.460938 236.835938 124.695312 237.453125 126.550781 C 238.074219 128.402344 238.074219 130.257812 237.144531 131.800781 L 230.65625 145.394531 C 229.421875 147.863281 226.949219 149.410156 224.480469 149.410156 C 223.554688 149.410156 222.625 149.101562 221.699219 148.792969 C 217.375 146.9375 207.179688 142.304688 191.113281 142.304688 C 176.59375 142.304688 170.109375 147.863281 170.109375 153.734375 C 170.109375 159.914062 176.90625 164.238281 198.21875 171.34375 C 220.773438 178.757812 243.941406 189.878906 243.941406 216.757812 C 243.941406 231.277344 233.746094 250.738281 205.636719 257.84375 L 201.929688 258.460938 L 201.929688 274.527344 C 201.929688 278.234375 198.839844 281.324219 195.132812 281.324219 L 178.449219 281.324219 C 174.742188 281.324219 171.652344 278.234375 171.652344 274.527344 L 171.652344 259.699219 L 167.636719 259.386719 C 154.96875 257.84375 142.921875 254.445312 134.890625 249.8125 C 131.183594 247.957031 129.949219 244.25 131.492188 240.851562 Z M 131.492188 240.851562 " fill-opacity="1" fill-rule="nonzero"/></g></svg>