<svg xmlns="http://www.w3.org/2000/svg" xmlns:xlink="http://www.w3.org/1999/xlink" width="50" zoomAndPan="magnify" viewBox="0 0 37.5 37.499999" height="50" preserveAspectRatio="xMidYMid meet" version="1.0"><defs><clipPath id="612c05e113"><path d="M 5.691406 5.691406 L 31.941406 5.691406 L 31.941406 31.941406 L 5.691406 31.941406 Z M 5.691406 5.691406 " clip-rule="nonzero"/></clipPath></defs><g clip-path="url(#612c05e113)"><path fill="#2ca3a9" d="M 18.8125 5.710938 C 26.0625 5.710938 31.941406 11.589844 31.941406 18.84375 C 31.941406 26.09375 26.0625 31.972656 18.8125 31.972656 C 11.558594 31.972656 5.679688 26.09375 5.679688 18.84375 C 5.683594 11.589844 11.558594 5.710938 18.8125 5.710938 Z M 18.8125 5.710938 " fill-opacity="1" fill-rule="evenodd"/></g><path fill="#fff9f1" d="M 27.046875 11.332031 C 26.453125 9 22.585938 8.234375 18.925781 9.535156 C 16.75 10.308594 14.390625 11.523438 12.695312 13.105469 C 10.679688 14.992188 10.359375 16.632812 10.492188 17.320312 C 10.957031 19.738281 14.273438 21.320312 15.636719 22.492188 L 15.636719 22.5 C 15.234375 22.699219 12.292969 24.1875 11.605469 25.707031 C 10.878906 27.3125 11.722656 28.464844 12.277344 28.621094 C 14.003906 29.101562 15.777344 28.238281 16.730469 26.816406 C 17.648438 25.445312 17.574219 23.675781 17.171875 22.796875 C 17.722656 22.648438 18.367188 22.585938 19.183594 22.679688 C 21.484375 22.949219 21.9375 24.386719 21.851562 24.988281 C 21.765625 25.589844 21.28125 25.921875 21.121094 26.023438 C 20.957031 26.121094 20.910156 26.15625 20.921875 26.230469 C 20.941406 26.339844 21.015625 26.335938 21.15625 26.3125 C 21.34375 26.28125 22.363281 25.824219 22.40625 24.710938 C 22.464844 23.300781 21.113281 21.722656 18.71875 21.765625 C 17.734375 21.78125 17.113281 21.875 16.664062 22.042969 C 16.632812 22.003906 16.597656 21.964844 16.5625 21.929688 C 15.085938 20.351562 12.347656 19.234375 12.464844 17.113281 C 12.507812 16.339844 12.773438 14.308594 17.71875 11.84375 C 21.773438 9.824219 25.015625 10.378906 25.574219 11.613281 C 26.375 13.371094 23.84375 16.640625 19.636719 17.113281 C 18.03125 17.289062 17.1875 16.667969 16.976562 16.4375 C 16.757812 16.195312 16.722656 16.183594 16.640625 16.230469 C 16.507812 16.304688 16.59375 16.519531 16.640625 16.648438 C 16.765625 16.972656 17.28125 17.554688 18.160156 17.84375 C 18.933594 18.097656 20.816406 18.234375 23.09375 17.355469 C 25.640625 16.367188 27.632812 13.625 27.046875 11.332031 Z M 16.203125 23.214844 C 16.394531 23.921875 16.371094 24.582031 16.175781 25.179688 C 16.152344 25.246094 16.128906 25.3125 16.101562 25.375 C 16.078125 25.441406 16.046875 25.503906 16.019531 25.566406 C 15.867188 25.882812 15.660156 26.179688 15.410156 26.453125 C 14.648438 27.285156 13.582031 27.597656 13.125 27.332031 C 12.632812 27.046875 12.878906 25.875 13.765625 24.9375 C 14.714844 23.933594 16.085938 23.285156 16.085938 23.285156 L 16.082031 23.28125 C 16.121094 23.261719 16.160156 23.238281 16.203125 23.214844 Z M 16.203125 23.214844 " fill-opacity="1" fill-rule="nonzero"/></svg>