<svg xmlns="http://www.w3.org/2000/svg" xmlns:xlink="http://www.w3.org/1999/xlink" width="500" zoomAndPan="magnify" viewBox="0 0 375 374.999991" height="500" preserveAspectRatio="xMidYMid meet" version="1.0"><defs><clipPath id="67eaec7c09"><path d="M 54.027344 54.027344 L 321.027344 54.027344 L 321.027344 321.027344 L 54.027344 321.027344 Z M 54.027344 54.027344 " clip-rule="nonzero"/></clipPath></defs><g clip-path="url(#67eaec7c09)"><path fill="#1b0739" d="M 187.527344 321.027344 C 261.132812 321.027344 321.027344 261.132812 321.027344 187.527344 C 321.027344 113.917969 261.132812 54.027344 187.527344 54.027344 C 113.917969 54.027344 54.027344 113.917969 54.027344 187.527344 C 54.027344 261.132812 113.917969 321.027344 187.527344 321.027344 Z M 187.527344 80.726562 C 246.414062 80.726562 294.328125 128.636719 294.328125 187.527344 C 294.328125 246.414062 246.414062 294.328125 187.527344 294.328125 C 128.636719 294.328125 80.726562 246.414062 80.726562 187.527344 C 80.726562 128.636719 128.636719 80.726562 187.527344 80.726562 Z M 187.527344 80.726562 " fill-opacity="1" fill-rule="nonzero"/></g><path fill="#1b0739" d="M 134.125 200.875 L 240.925781 200.875 C 248.300781 200.875 254.277344 194.898438 254.277344 187.527344 C 254.277344 180.152344 248.300781 174.175781 240.925781 174.175781 L 134.125 174.175781 C 126.753906 174.175781 120.777344 180.152344 120.777344 187.527344 C 120.777344 194.898438 126.753906 200.875 134.125 200.875 Z M 134.125 200.875 " fill-opacity="1" fill-rule="nonzero"/></svg>