<svg xmlns="http://www.w3.org/2000/svg" xmlns:xlink="http://www.w3.org/1999/xlink" width="500" zoomAndPan="magnify" viewBox="0 0 375 374.999991" height="500" preserveAspectRatio="xMidYMid meet" version="1.0"><defs><clipPath id="10b1088011"><path d="M 54.324219 54.324219 L 320.574219 54.324219 L 320.574219 320.574219 L 54.324219 320.574219 Z M 54.324219 54.324219 " clip-rule="nonzero"/></clipPath></defs><g clip-path="url(#10b1088011)"><path fill="#1b0739" d="M 187.449219 294.78125 C 128.257812 294.78125 80.113281 246.628906 80.113281 187.449219 C 80.113281 128.265625 128.257812 80.113281 187.449219 80.113281 C 246.628906 80.113281 294.78125 128.265625 294.78125 187.449219 C 294.78125 246.628906 246.628906 294.78125 187.449219 294.78125 Z M 187.449219 54.324219 C 114.042969 54.324219 54.324219 114.042969 54.324219 187.449219 C 54.324219 260.855469 114.042969 320.574219 187.449219 320.574219 C 260.855469 320.574219 320.574219 260.855469 320.574219 187.449219 C 320.574219 114.042969 260.855469 54.324219 187.449219 54.324219 " fill-opacity="1" fill-rule="nonzero"/></g><path fill="#1b0739" d="M 242.496094 174.558594 L 200.339844 174.558594 L 200.339844 132.402344 C 200.339844 125.28125 194.570312 119.5 187.449219 119.5 C 180.328125 119.5 174.558594 125.28125 174.558594 132.402344 L 174.558594 174.558594 L 132.402344 174.558594 C 125.28125 174.558594 119.5 180.328125 119.5 187.449219 C 119.5 194.570312 125.28125 200.339844 132.402344 200.339844 L 174.558594 200.339844 L 174.558594 242.496094 C 174.558594 249.617188 180.328125 255.394531 187.449219 255.394531 C 194.570312 255.394531 200.339844 249.617188 200.339844 242.496094 L 200.339844 200.339844 L 242.496094 200.339844 C 249.617188 200.339844 255.394531 194.570312 255.394531 187.449219 C 255.394531 180.328125 249.617188 174.558594 242.496094 174.558594 " fill-opacity="1" fill-rule="nonzero"/></svg>